<svg width="auto" height="auto" viewBox="0 0 112 129" fill="none" xmlns="http://www.w3.org/2000/svg">
<path fill-rule="evenodd" clip-rule="evenodd" d="M104.368 40.4661C100.146 40.4661 96.728 43.7921 96.728 47.8941V79.6911C96.728 83.7931 100.146 87.1191 104.368 87.1191C108.582 87.1191 112 83.7931 112 79.6911V47.8941C112 43.7931 108.582 40.4661 104.368 40.4661ZM7.64 40.4661C3.418 40.4661 0 43.7921 0 47.8941V79.6911C0 83.7931 3.418 87.1191 7.64 87.1191C11.854 87.1191 15.272 83.7931 15.272 79.6911V47.8941C15.272 43.7931 11.854 40.4661 7.64 40.4661ZM20.917 40.4661H20.368V94.9691C20.368 99.2961 23.979 102.819 28.433 102.819H34.248C34.047 103.474 33.939 104.159 33.939 104.881V120.573C33.939 124.675 37.365 128.001 41.579 128.001C45.793 128.001 49.219 124.675 49.219 120.573V104.88C49.219 104.158 49.103 103.473 48.91 102.818H63.092C62.899 103.473 62.79 104.158 62.79 104.88V120.572C62.79 124.674 66.208 128 70.422 128C74.644 128 78.07 124.674 78.07 120.572V104.88C78.07 104.158 77.954 103.473 77.753 102.818H83.576C88.03 102.818 91.633 99.2961 91.633 94.9681V40.4661H20.917ZM73.53 10.7161L74.953 8.62412L76.376 6.56212L79.546 1.92612C79.94 1.35412 79.778 0.586124 79.19 0.210124C78.61 -0.173876 77.814 -0.0158755 77.435 0.556125L72.594 7.60812L71.141 9.73012C66.54 7.99212 61.413 7.02112 56 7.02112C50.595 7.02112 45.46 7.99212 40.859 9.73012L39.413 7.60812L37.982 5.52312L34.58 0.556125C34.186 -0.0158755 33.397 -0.165875 32.809 0.210124C32.229 0.586124 32.067 1.35412 32.453 1.92612L35.623 6.56212L37.046 8.62412L38.477 10.7161C27.674 15.6151 20.367 24.8951 20.367 35.5141H91.631C91.632 24.8951 84.325 15.6161 73.53 10.7161ZM40.728 25.6021C38.617 25.6021 36.908 23.9391 36.908 21.8841C36.908 19.8291 38.617 18.1741 40.728 18.1741C42.839 18.1741 44.548 19.8301 44.548 21.8841C44.548 23.9391 42.839 25.6021 40.728 25.6021ZM71.272 25.6021C69.161 25.6021 67.452 23.9391 67.452 21.8841C67.452 19.8291 69.161 18.1741 71.272 18.1741C73.383 18.1741 75.092 19.8301 75.092 21.8841C75.092 23.9391 73.383 25.6021 71.272 25.6021Z" fill="#95CF00"/>
</svg>
