<svg width="auto" height="auto" viewBox="0 0 41 50" fill="none" xmlns="http://www.w3.org/2000/svg">
<path d="M33.7771 26.517C33.7151 20.285 38.8591 17.296 39.0891 17.145C36.1981 12.918 31.6941 12.338 30.0911 12.272C26.2611 11.883 22.6141 14.528 20.6711 14.528C18.7321 14.528 15.7301 12.329 12.5541 12.385C8.37614 12.447 4.52514 14.815 2.37514 18.555C-1.96386 26.082 1.26514 37.237 5.49314 43.346C7.56014 46.332 10.0251 49.692 13.2591 49.569C16.3761 49.446 17.5521 47.553 21.3201 47.553C25.0881 47.553 26.1461 49.569 29.4431 49.506C32.7951 49.445 34.9201 46.463 36.9701 43.465C39.3431 39.996 40.3201 36.637 40.3781 36.467C40.3051 36.433 33.8441 33.958 33.7771 26.517Z" fill="black"/>
<path d="M27.5823 8.22902C29.2973 6.14702 30.4593 3.25402 30.1433 0.374023C27.6683 0.474023 24.6723 2.01902 22.8953 4.09902C21.3033 5.94502 19.9113 8.88402 20.2843 11.712C23.0453 11.926 25.8613 10.307 27.5823 8.22902Z" fill="black"/>
</svg>
