<svg width="1rem" height="1rem" viewBox="0 0 14 20" fill="none" xmlns="http://www.w3.org/2000/svg">
<path d="M0.600067 11.2826L10.6017 19.6173C10.9417 19.8986 11.3793 20.0336 11.8187 19.9929C12.2581 19.9522 12.6634 19.739 12.9459 19.4C13.2285 19.0611 13.3651 18.624 13.3261 18.1845C13.287 17.745 13.0754 17.3388 12.7375 17.055L4.27255 10.0014L12.7375 2.94772C13.0767 2.66432 13.2895 2.25787 13.3292 1.81766C13.3689 1.37745 13.2322 0.939484 12.9492 0.599968C12.6662 0.260452 12.26 0.0471535 11.8199 0.00692749C11.3797 -0.0333004 10.9416 0.102837 10.6017 0.385427L0.600067 8.7203C0.412529 8.87698 0.261675 9.07293 0.15816 9.2943C0.0546455 9.51567 0.000993729 9.75706 0.000993729 10.0014C0.000993729 10.2458 0.0546455 10.4872 0.15816 10.7086C0.261675 10.9299 0.412529 11.1259 0.600067 11.2826Z" fill="#9296AC"/>
</svg>
