<svg width="50" height="50" viewBox="0 0 50 50" fill="none" xmlns="http://www.w3.org/2000/svg">
<path d="M30.4132 16.7476L22.3932 26.3667L19.5856 23.0006C19.3231 22.6856 19.0011 22.4254 18.638 22.2348C18.2749 22.0443 17.8779 21.9271 17.4695 21.8899C17.0612 21.8528 16.6495 21.8965 16.258 22.0185C15.8666 22.1404 15.5029 22.3383 15.1879 22.6008C14.8729 22.8633 14.6127 23.1853 14.4222 23.5484C14.2316 23.9114 14.1144 24.3085 14.0773 24.7168C14.0402 25.1252 14.0838 25.5368 14.2058 25.9283C14.3278 26.3198 14.5257 26.6834 14.7882 26.9984L19.9945 33.2484C20.2871 33.6005 20.6536 33.884 21.068 34.0786C21.4824 34.2732 21.9346 34.3742 22.3924 34.3745C22.8503 34.3748 23.3026 34.2743 23.7172 34.0803C24.1319 33.8862 24.4988 33.6032 24.7919 33.2515L35.2106 20.7515C35.4754 20.4367 35.6754 20.0728 35.7992 19.6805C35.923 19.2883 35.9682 18.8754 35.932 18.4657C35.8959 18.0559 35.7792 17.6574 35.5887 17.2928C35.3981 16.9283 35.1375 16.6049 34.8217 16.3414C34.5059 16.0778 34.1412 15.8792 33.7484 15.7569C33.3557 15.6347 32.9427 15.5912 32.5331 15.6289C32.1235 15.6666 31.7254 15.7849 31.3616 15.9769C30.9978 16.1688 30.6755 16.4307 30.4132 16.7476Z" fill="#4A58A9"/>
<path d="M25 0C20.0555 0 15.222 1.46622 11.1108 4.21326C6.99953 6.9603 3.79522 10.8648 1.90302 15.4329C0.0108322 20.0011 -0.484251 25.0277 0.480379 29.8773C1.44501 34.7268 3.82603 39.1814 7.32234 42.6777C10.8187 46.174 15.2732 48.555 20.1228 49.5196C24.9723 50.4843 29.999 49.9892 34.5671 48.097C39.1353 46.2048 43.0397 43.0005 45.7868 38.8893C48.5338 34.778 50 29.9445 50 25C49.993 18.3718 47.3568 12.017 42.6699 7.33013C37.983 2.64325 31.6283 0.00705884 25 0ZM25 43.75C21.2916 43.75 17.6665 42.6503 14.5831 40.5901C11.4997 38.5298 9.09642 35.6014 7.67727 32.1753C6.25813 28.7492 5.88682 24.9792 6.61029 21.3421C7.33376 17.7049 9.11953 14.364 11.7418 11.7417C14.364 9.11951 17.7049 7.33375 21.3421 6.61028C24.9792 5.8868 28.7492 6.25812 32.1753 7.67726C35.6015 9.0964 38.5298 11.4996 40.5901 14.5831C42.6504 17.6665 43.75 21.2916 43.75 25C43.7446 29.9712 41.7674 34.7371 38.2523 38.2523C34.7372 41.7674 29.9712 43.7446 25 43.75Z" fill="#4A58A9"/>
</svg>
