<svg width="56" height="56" viewBox="0 0 56 56" fill="none" xmlns="http://www.w3.org/2000/svg">
<path d="M19.668 22.4443H19.6957" stroke="#4A58A9" stroke-width="6" stroke-linecap="round" stroke-linejoin="round"/>
<path d="M36.332 22.4443H36.3598" stroke="#4A58A9" stroke-width="6" stroke-linecap="round" stroke-linejoin="round"/>
<path d="M21.0566 37.027C21.9619 36.1031 23.0423 35.3691 24.2348 34.868C25.4272 34.367 26.7076 34.1089 28.0011 34.1089C29.2945 34.1089 30.575 34.367 31.7674 34.868C32.9598 35.3691 34.0403 36.1031 34.9455 37.027" stroke="#4A58A9" stroke-width="6" stroke-linecap="round" stroke-linejoin="round"/>
<path d="M43.4603 43.572C42.7026 44.3516 42.1903 45.3363 41.9868 46.4043C41.7834 47.4722 41.8977 48.5764 42.3157 49.58C42.7337 50.5835 43.437 51.4424 44.3383 52.0502C45.2397 52.658 46.2996 52.9879 47.3867 52.9992C48.4738 53.0105 49.5403 52.7025 50.4541 52.1135C51.3678 51.5246 52.0887 50.6804 52.5274 49.6857C52.9661 48.691 53.1033 47.5894 52.922 46.5175C52.7407 45.4456 52.2489 44.4504 51.5075 43.6553L47.4436 39.1108L43.4603 43.572Z" stroke="#4A58A9" stroke-width="4" stroke-linecap="round" stroke-linejoin="round"/>
<path d="M52.625 32.2139C52.8697 30.8225 52.9951 29.4127 53 28C53 23.0555 51.5338 18.222 48.7867 14.1108C46.0397 9.99953 42.1352 6.79521 37.5671 4.90302C32.9989 3.01083 27.9723 2.51575 23.1228 3.48038C18.2732 4.44501 13.8187 6.82603 10.3223 10.3223C6.82603 13.8187 4.44501 18.2732 3.48038 23.1228C2.51575 27.9723 3.01083 32.9989 4.90302 37.5671C6.79521 42.1352 9.99953 46.0397 14.1108 48.7867C18.222 51.5338 23.0555 53 28 53C29.9167 53 31.7778 52.7889 33.5556 52.3833" stroke="#4A58A9" stroke-width="6" stroke-linecap="round" stroke-linejoin="round"/>
</svg>
