<svg width="151" height="147" viewBox="0 0 151 147" fill="none" xmlns="http://www.w3.org/2000/svg">
<path d="M146.528 126.779L100.037 80.2783C93.8809 74.1219 96.8531 69.6 96.8531 69.6L96.8248 69.5694C98.8809 65.3348 98.1885 60.1134 94.6793 56.5971L76.5822 38.5C72.1403 34.0558 64.9382 34.0558 60.494 38.5L57.729 41.2603L57.4346 41.557C57.4346 41.557 56.1652 44.0817 61.9518 44.4185L61.9542 44.4256C61.9542 44.4256 64.6155 44.6517 67.2157 47.2518L73.6217 53.6579C75.9627 55.9965 76.0263 58.4365 75.918 59.534C75.3834 62.5486 73.9938 65.4384 71.6599 67.7653C69.3494 70.0828 66.4761 71.4606 63.4851 71.9976C62.1591 72.12 59.6367 71.8916 56.8435 69.0983L51.9871 64.2349C48.9278 61.1756 48.2777 57.2283 48.2777 57.2283H48.2707C47.086 51.8609 45.4657 53.533 45.4657 53.533L42.4039 56.5948C37.9621 61.0343 37.9621 68.2387 42.4016 72.6829L60.4964 90.7753C64.194 94.4753 69.7922 95.0476 74.1328 92.5912L74.1658 92.6265C74.1658 92.6265 78.1483 90.1088 83.5087 95.4739L131.757 143.729C131.757 143.729 137.621 149.487 143.153 143.957L147.718 139.393C149.26 137.669 152.527 132.777 146.528 126.779Z" fill="white"/>
<path d="M96.1145 120.448C93.227 117.014 88.5921 119.143 88.5921 119.143L88.5803 119.113C88.1846 119.247 87.796 119.405 87.3933 119.53C87.2661 119.577 87.186 119.628 87.0376 119.687C80.7069 122.019 80.6481 126.833 80.6481 126.833V132.478C80.5586 137.283 76.7243 138.126 74.7413 138.253H72.445C67.518 138.352 66.6348 135.34 66.5076 133.729V127.229C66.5076 121.251 59.8354 119.6 59.8354 119.6L59.8566 119.572C56.2438 118.503 52.8264 116.984 49.6164 115.161C49.4821 115.102 49.3761 115.067 49.2301 114.993C43.8297 112.287 39.8047 116.105 39.8047 116.105L35.2145 120.695C32.0091 123.889 29.6375 122.4 28.7684 121.612L28.3986 121.237L28.3845 121.218L24.6115 117.448C24.6092 117.441 24.6045 117.441 24.5974 117.433C21.6464 114.487 25.4853 110.434 25.9964 109.923L30.4735 105.45C30.4759 105.45 30.4759 105.439 30.4759 105.439C33.9262 101.988 31.2154 96.6161 31.2154 96.6161C31.2154 96.6161 31.2531 96.609 31.2602 96.609C29.5385 93.4814 28.116 90.1677 27.1009 86.6632C27.068 86.5713 27.0303 86.5124 26.995 86.4159C24.7222 80.1323 18.9897 80.2383 18.879 80.2383L14.529 80.2571C9.43716 80.2642 8.521 76.9552 8.3844 75.2147L8.37263 71.7078C8.40324 70.2594 8.92845 66.1614 14.0792 66.1167L19.6562 66.0931C19.6562 66.0931 24.9106 66.3381 26.7759 60.7398C26.8018 60.6692 26.8372 60.6315 26.8607 60.5608C27.9794 56.4369 29.5927 52.5226 31.6888 48.9216C31.6888 48.9216 31.6888 48.9192 31.6888 48.9145C34.3501 43.5612 30.5489 39.5456 30.052 39.0581L26.2601 35.271C26.2601 35.271 26.2601 35.2687 26.2531 35.2616C22.5955 31.604 25.1014 28.434 25.9705 27.5296L27.9464 25.5536C27.9464 25.5536 32.1151 21.14 36.5287 25.5536C36.5357 25.5536 36.5357 25.5559 36.5405 25.5607L40.8504 29.8706C41.6629 30.6408 44.979 33.3374 49.7365 31.027C49.7553 31.0199 49.7624 31.0199 49.7789 31.0129C52.8406 29.2795 56.1331 27.9182 59.5599 26.8725C59.6517 26.8348 59.7012 26.7901 59.8048 26.7477C65.3253 24.5785 66.3545 21.1753 66.5076 19.416V12.9817C66.5382 11.9054 66.9504 7.66843 71.8986 7.66843H74.9933C74.9933 7.66843 80.6386 7.48002 80.6386 13.766V18.6223C80.6693 20.0072 81.1521 24.6209 86.4748 26.498C86.4842 26.5004 86.4842 26.5051 86.4983 26.5098C89.7202 27.3977 92.7937 28.6459 95.7094 30.1532L95.74 30.1273C95.74 30.1273 102.382 34.2489 107.396 29.2394L110.749 25.8857C110.905 25.7302 115.443 21.3355 118.837 24.7293C118.844 24.7316 118.851 24.7363 118.851 24.7434L121.63 27.5154C121.63 27.5154 125.001 31.6181 120.757 35.8645L117 39.621C117 39.621 113.083 43.6342 115.928 49.7153C115.978 49.8212 115.978 49.8848 116.023 49.9885C117.756 53.1467 119.124 56.5264 120.132 60.0662C120.142 60.0592 120.18 60.0286 120.18 60.0286C120.18 60.0286 121.395 66.1284 126.835 66.1143L132.116 66.0908H132.257H132.495C132.648 66.0884 138.943 65.9871 138.957 71.9339L138.974 74.4328V74.4398V75.0545C138.922 76.5265 138.22 80.2053 132.368 80.2265L127.304 80.243C123.345 80.2807 121.376 83.5237 120.509 85.5869C120.18 86.4889 119.409 89.414 122.203 92.1625L122.921 92.869C122.935 92.8808 122.945 92.8879 122.954 92.8997C127.127 97.3745 130.107 91.1074 130.107 91.1074C132 87.9609 134.768 87.3297 136.249 87.2284H143.972C146.32 87.2284 148.223 85.3278 148.223 82.9773V63.3705C148.223 61.0271 146.32 59.1195 143.972 59.1195H136.605C130.827 59.1195 129.369 53.7591 129.369 53.7591C129.369 53.7591 129.332 53.7685 129.32 53.7732C128.46 51.3003 127.483 48.8768 126.312 46.5641C126.312 46.557 126.312 46.5523 126.305 46.5452C124.358 42.2588 128.011 38.6059 128.211 38.4152L132.912 33.7048C134.57 32.0444 134.57 29.3548 132.912 27.6921L119.049 13.8296C117.384 12.1715 114.694 12.1739 113.036 13.8319L109.621 17.2422C104.289 22.6073 99.2892 20.0166 99.2892 20.0166L99.2822 20.0307C97.3651 19.1122 95.4032 18.2832 93.3872 17.5649C93.293 17.5201 93.227 17.4801 93.1305 17.44C88.6721 15.6148 88.0857 11.0457 88.0292 9.19458V4.25108C88.0292 1.90298 86.1238 0 83.7781 0H63.3705C61.0271 0 59.1195 1.90298 59.1195 4.25108V10.3957C59.1195 16.5498 53.9145 17.4824 53.9145 17.4824L53.9451 17.513C51.6936 18.3162 49.4868 19.2135 47.3625 20.2686C47.3248 20.2827 47.3036 20.2757 47.2659 20.2898C43.0219 22.1692 40.6761 20.3275 40.0803 19.7504L39.9342 19.6044L39.9131 19.5785L34.1617 13.8178C32.499 12.1597 29.807 12.1597 28.149 13.8107L14.2723 27.6685C12.6143 29.3313 12.6096 32.0185 14.2723 33.6789L18.879 38.2903C18.879 38.2903 22.8734 42.141 20.8927 46.4651C20.8927 46.4722 20.8927 46.4722 20.8927 46.4722C19.7457 48.7261 18.7825 51.0836 17.9299 53.4906C17.871 53.6154 17.8145 53.712 17.7556 53.858C15.9892 58.1703 12.7085 58.9923 10.9539 59.1195H4.25108C1.90298 59.1195 0 61.0271 0 63.3705V82.9773C0 85.3278 1.90298 87.2284 4.25108 87.2284H11.8818C16.1989 87.2284 17.334 91.211 17.334 91.211C17.334 91.211 17.3647 91.138 17.3835 91.1027C18.2667 93.8511 19.2747 96.5431 20.53 99.0985C20.5277 99.0985 20.5041 99.1102 20.5041 99.1102C20.5041 99.1102 23.2008 103.682 20.1791 106.703V106.71L14.2464 112.641C12.5884 114.299 12.5884 116.998 14.2464 118.649L28.1113 132.511C29.774 134.174 32.4613 134.174 34.1193 132.511L39.4562 127.184L39.4679 127.167L39.7058 126.934C40.4383 126.237 43.0077 124.341 47.9654 126.388C48.0172 126.414 48.0478 126.421 48.0949 126.437C49.9861 127.332 51.9315 128.147 53.924 128.847L53.9004 128.868C53.9004 128.868 59.1218 130.422 59.1218 135.667V142.101C59.1218 144.452 61.0295 146.353 63.3729 146.353H83.7804C86.1262 146.353 88.0315 144.452 88.0315 142.101V135.055C88.1257 133.5 88.8158 130.566 92.4734 129.127C92.6147 129.068 92.7042 129.019 92.8149 128.969C94.228 128.477 95.5845 127.876 96.9505 127.292C100.25 125.46 97.1908 121.725 97.1908 121.725L96.1145 120.448Z" fill="white"/>
</svg>
