<svg width="auto" height="auto" viewBox="0 0 103 58" fill="none" xmlns="http://www.w3.org/2000/svg">
<path d="M1.83398 36.3702C1.83398 35.9448 2.01143 35.7309 2.36631 35.7309H17.4222C17.7528 35.7309 17.9181 35.9253 17.9181 36.3167L17.8913 39.5496C17.8913 40.0527 17.6507 40.3055 17.1694 40.3055H8.8053C8.3775 40.3055 8.16602 40.4805 8.16602 40.8281V43.1981C8.16602 43.3852 8.20977 43.5287 8.30214 43.6332C8.39694 43.7377 8.51848 43.7912 8.66918 43.7912H13.6862C14.0751 43.7912 14.2696 43.9735 14.2696 44.3405V47.7994C14.2696 48.1179 14.1019 48.2759 13.7664 48.2759H8.60841C8.47959 48.2759 8.37263 48.3147 8.28756 48.3925C8.20491 48.4655 8.16602 48.5554 8.16602 48.6648V51.4552C8.16602 51.6035 8.1879 51.7056 8.23408 51.7615C8.27783 51.815 8.36777 51.8417 8.49903 51.8417H17.5583C17.9667 51.8417 18.1709 52.0192 18.1709 52.3741V55.8038C18.1709 55.991 18.115 56.1393 18.0007 56.2535C17.8913 56.3629 17.7261 56.4164 17.5049 56.4164H2.58994C2.30798 56.4164 2.11109 56.3629 1.99927 56.2535C1.88989 56.1393 1.83398 55.9642 1.83398 55.7236V36.3702ZM38.6327 55.5243C38.6692 55.5972 38.6886 55.6993 38.6886 55.8305C38.6886 55.9983 38.6352 56.1393 38.5306 56.2535C38.431 56.3629 38.2997 56.4164 38.1369 56.4164H32.7261C32.3347 56.4164 32.0819 56.2219 31.9701 55.8305L29.3498 48.6356C29.2939 48.4873 29.2015 48.3755 29.0703 48.3026C28.9439 48.2297 28.747 48.1932 28.4844 48.1932H27.2035C27.0916 48.1932 27.0066 48.2297 26.9531 48.3026C26.8972 48.3755 26.8704 48.4411 26.8704 48.4995V55.6069C26.8704 55.9059 26.7951 56.1174 26.6468 56.2389C26.4961 56.358 26.2652 56.4164 25.9516 56.4164H21.2628C20.9857 56.4164 20.7961 56.3629 20.6915 56.2535C20.5919 56.1393 20.5408 55.9642 20.5408 55.7236V36.3702C20.5408 35.9448 20.7183 35.7309 21.0707 35.7309H30.3828C33.0785 35.7309 35.1689 36.2462 36.6517 37.2768C38.1417 38.3075 38.8855 39.761 38.8855 41.64C38.8855 42.9234 38.5452 44.0683 37.8646 45.0697C37.1889 46.0736 36.3114 46.7785 35.237 47.1869C35.1228 47.2452 35.0668 47.34 35.0668 47.4664C35.0668 47.5199 35.0839 47.605 35.1203 47.7168L38.6327 55.5243ZM30.1325 44.0342C30.8398 44.0342 31.3843 43.8568 31.7659 43.4971C32.1475 43.1349 32.3371 42.6439 32.3371 42.0265C32.3371 41.341 32.1087 40.8087 31.6493 40.427C31.1947 40.0454 30.6332 39.8558 29.9623 39.8558H27.5122C27.2715 39.8558 27.1014 39.8996 27.0066 39.9847C26.9166 40.0673 26.8704 40.2107 26.8704 40.4149V43.4509C26.8704 43.655 26.902 43.8033 26.9652 43.8981C27.0309 43.9905 27.1548 44.0342 27.342 44.0342H30.1325ZM59.2355 55.5243C59.272 55.5972 59.289 55.6993 59.289 55.8305C59.289 55.9983 59.238 56.1393 59.1334 56.2535C59.0338 56.3629 58.9025 56.4164 58.7372 56.4164H53.3264C52.9375 56.4164 52.6847 56.2219 52.5705 55.8305L49.9502 48.6356C49.8967 48.4873 49.8043 48.3755 49.6706 48.3026C49.5442 48.2297 49.3498 48.1932 49.0873 48.1932H47.8063C47.692 48.1932 47.6094 48.2297 47.5535 48.3026C47.5 48.3755 47.4733 48.4411 47.4733 48.4995V55.6069C47.4733 55.9059 47.3979 56.1174 47.2472 56.2389C47.0989 56.358 46.868 56.4164 46.5544 56.4164H41.8632C41.5885 56.4164 41.3965 56.3629 41.2919 56.2535C41.1923 56.1393 41.1437 55.9642 41.1437 55.7236V36.3702C41.1437 35.9448 41.3187 35.7309 41.6736 35.7309H50.9857C53.6813 35.7309 55.7693 36.2462 57.2545 37.2768C58.7421 38.3075 59.4859 39.761 59.4859 41.64C59.4859 42.9234 59.1456 44.0683 58.465 45.0697C57.7893 46.0736 56.9142 46.7785 55.8374 47.1869C55.7256 47.2452 55.6672 47.34 55.6672 47.4664C55.6672 47.5199 55.6867 47.605 55.7231 47.7168L59.2355 55.5243ZM50.7329 44.0342C51.4402 44.0342 51.9847 43.8568 52.3663 43.4971C52.7479 43.1349 52.94 42.6439 52.94 42.0265C52.94 41.341 52.709 40.8087 52.2521 40.427C51.7975 40.0454 51.236 39.8558 50.5627 39.8558H48.1125C47.8719 39.8558 47.7042 39.8996 47.6094 39.9847C47.5194 40.0673 47.4733 40.2107 47.4733 40.4149V43.4509C47.4733 43.655 47.5049 43.8033 47.5681 43.8981C47.6313 43.9905 47.7577 44.0342 47.9424 44.0342H50.7329ZM71.1996 56.6959C69.1699 56.6959 67.3979 56.2656 65.8836 55.4027C64.3668 54.535 63.2001 53.3075 62.3833 51.7202C61.5666 50.1329 61.1582 48.2686 61.1582 46.132C61.1582 43.9954 61.5715 42.1237 62.3979 40.517C63.2292 38.9054 64.3984 37.6585 65.9103 36.7785C67.4247 35.8937 69.1894 35.4514 71.1996 35.4514C73.1855 35.4514 74.9307 35.8937 76.4329 36.7785C77.94 37.6585 79.1067 38.9054 79.9332 40.517C80.762 42.1237 81.1777 43.9954 81.1777 46.132C81.1777 48.2515 80.7669 50.1086 79.9453 51.7056C79.1286 53.305 77.9667 54.535 76.4596 55.4027C74.9575 56.2656 73.2049 56.6959 71.1996 56.6959ZM71.1996 52.3473C72.0163 52.3473 72.6653 52.1456 73.1466 51.7469C73.6303 51.3483 73.9852 50.7042 74.2088 49.8145C74.43 48.92 74.5418 47.7192 74.5418 46.2146C74.5418 43.9078 74.2793 42.255 73.7591 41.2511C73.2414 40.2496 72.3882 39.7464 71.1996 39.7464C69.9866 39.7464 69.1164 40.2496 68.5841 41.2511C68.0591 42.255 67.7965 43.9078 67.7965 46.2146C67.7965 47.7192 67.9059 48.92 68.1296 49.8145C68.3508 50.7042 68.7081 51.3483 69.1991 51.7469C69.6925 52.1456 70.3585 52.3473 71.1996 52.3473ZM101.581 55.5243C101.618 55.5972 101.637 55.6993 101.637 55.8305C101.637 55.9983 101.584 56.1393 101.479 56.2535C101.379 56.3629 101.248 56.4164 101.085 56.4164H95.6745C95.2832 56.4164 95.0304 56.2219 94.9186 55.8305L92.2983 48.6356C92.2423 48.4873 92.15 48.3755 92.0187 48.3026C91.8899 48.2297 91.6954 48.1932 91.4329 48.1932H90.1519C90.0401 48.1932 89.955 48.2297 89.9016 48.3026C89.8457 48.3755 89.8189 48.4411 89.8189 48.4995V55.6069C89.8189 55.9059 89.7436 56.1174 89.5953 56.2389C89.4446 56.358 89.2137 56.4164 88.9001 56.4164H84.2112C83.9341 56.4164 83.7445 56.3629 83.64 56.2535C83.5404 56.1393 83.4893 55.9642 83.4893 55.7236V36.3702C83.4893 35.9448 83.6667 35.7309 84.0192 35.7309H93.3313C96.027 35.7309 98.1174 36.2462 99.6001 37.2768C101.09 38.3075 101.834 39.761 101.834 41.64C101.834 42.9234 101.494 44.0683 100.813 45.0697C100.137 46.0736 99.2598 46.7785 98.1855 47.1869C98.0712 47.2452 98.0153 47.34 98.0153 47.4664C98.0153 47.5199 98.0323 47.605 98.0688 47.7168L101.581 55.5243ZM93.0809 44.0342C93.7883 44.0342 94.3328 43.8568 94.7144 43.4971C95.096 43.1349 95.2856 42.6439 95.2856 42.0265C95.2856 41.341 95.0571 40.8087 94.5977 40.427C94.1432 40.0454 93.5817 39.8558 92.9108 39.8558H90.4582C90.22 39.8558 90.0498 39.8996 89.955 39.9847C89.8651 40.0673 89.8189 40.2107 89.8189 40.4149V43.4509C89.8189 43.655 89.8505 43.8033 89.9137 43.8981C89.9793 43.9905 90.1033 44.0342 90.288 44.0342H93.0809Z" stroke="#9FA5C8" stroke-width="2.2403"/>
<path d="M31.6756 1.14194C31.9138 0.845395 32.118 0.653368 32.2882 0.568292C32.4559 0.485647 32.7257 0.441895 33.0952 0.441895H37.6746C37.8351 0.441895 37.9615 0.495371 38.0538 0.597461C38.1511 0.69469 38.1997 0.838103 38.1997 1.02527V12.158C38.1997 12.3792 38.3018 12.4886 38.5108 12.4886H40.5721C40.9804 12.4886 41.1846 12.6636 41.1846 13.0136V16.086C41.1846 16.4944 40.961 16.6986 40.5137 16.6986H38.54C38.3115 16.6986 38.1997 16.8201 38.1997 17.0583V20.3252C38.1997 20.6242 38.1243 20.8357 37.9761 20.9572C37.8254 21.0739 37.5969 21.1322 37.2857 21.1322H32.5118C32.2323 21.1322 32.0378 21.0787 31.9284 20.9669C31.8166 20.8575 31.7631 20.6801 31.7631 20.4322L31.7923 16.9805C31.7923 16.7934 31.6586 16.6986 31.3937 16.6986H23.45C23.2289 16.6986 23.0563 16.6451 22.9347 16.5333C22.8108 16.4239 22.75 16.2756 22.75 16.086V13.1886C22.75 12.982 22.8132 12.7608 22.9445 12.5275C23.0733 12.2941 23.3164 11.9587 23.6737 11.5163L31.6756 1.14194ZM31.6173 12.4886C31.6951 12.4886 31.7558 12.4691 31.802 12.4302C31.8458 12.3913 31.8701 12.3476 31.8701 12.2941V6.90762C31.8701 6.63052 31.8433 6.48954 31.7923 6.48954C31.734 6.48954 31.6294 6.59406 31.4812 6.80067L27.6601 12.1288C27.5871 12.2406 27.5531 12.3136 27.5531 12.3524C27.5531 12.4448 27.6528 12.4886 27.8545 12.4886H31.6173Z" fill="#9FA5C8"/>
<path d="M52.0278 0.130737C53.7779 0.130737 55.3482 0.597436 56.7434 1.53083C58.1362 2.45937 59.2276 3.7355 60.02 5.36166C60.81 6.99024 61.2062 8.81815 61.2062 10.8454C61.2062 12.8677 60.8124 14.6811 60.0298 16.2805C59.2519 17.8823 58.1678 19.1293 56.7823 20.0238C55.4017 20.9134 53.8168 21.3558 52.0278 21.3558C50.2437 21.3558 48.6491 20.9134 47.2441 20.0238C45.844 19.1293 44.7502 17.8823 43.9675 16.2805C43.1897 14.6811 42.8008 12.8677 42.8008 10.8454C42.8008 8.81815 43.1946 6.99024 43.987 5.36166C44.777 3.7355 45.8732 2.45937 47.2733 1.53083C48.6783 0.597436 50.2631 0.130737 52.0278 0.130737ZM51.9986 17.0097C52.6841 17.0097 53.2334 16.8104 53.6418 16.4069C54.055 16.0058 54.3516 15.3641 54.5266 14.4817C54.7016 13.6018 54.7891 12.3986 54.7891 10.8745C54.7891 8.54833 54.5752 6.89301 54.1474 5.90614C53.7196 4.92169 53.0025 4.42826 51.9986 4.42826C50.9923 4.42826 50.2777 4.92169 49.8499 5.90614C49.4269 6.89301 49.2179 8.54833 49.2179 10.8745C49.2179 12.3792 49.3078 13.5775 49.4901 14.472C49.6773 15.3617 49.969 16.0058 50.3652 16.4069C50.7663 16.8104 51.3107 17.0097 51.9986 17.0097Z" fill="#9FA5C8"/>
<path d="M71.7655 1.14188C72.0037 0.845334 72.2079 0.653307 72.378 0.568231C72.5457 0.485586 72.8155 0.441833 73.185 0.441833H77.7645C77.9249 0.441833 78.0513 0.49531 78.1437 0.5974C78.2409 0.694629 78.2895 0.838042 78.2895 1.02521V12.1579C78.2895 12.3791 78.3916 12.4885 78.6007 12.4885H80.6619C81.0703 12.4885 81.2745 12.6635 81.2745 13.0135V16.086C81.2745 16.4943 81.0508 16.6985 80.6036 16.6985H78.6298C78.4013 16.6985 78.2895 16.8201 78.2895 17.0583V20.3252C78.2895 20.6241 78.2142 20.8356 78.0659 20.9571C77.9152 21.0738 77.6867 21.1322 77.3756 21.1322H72.6016C72.3221 21.1322 72.1276 21.0787 72.0183 20.9669C71.9064 20.8575 71.853 20.68 71.853 20.4321L71.8821 16.9805C71.8821 16.7933 71.7484 16.6985 71.4835 16.6985H63.5399C63.3187 16.6985 63.1461 16.645 63.0246 16.5332C62.9006 16.4238 62.8398 16.2756 62.8398 16.086V13.1886C62.8398 12.9819 62.903 12.7607 63.0343 12.5274C63.1631 12.294 63.4062 11.9586 63.7635 11.5162L71.7655 1.14188ZM71.7071 12.4885C71.7849 12.4885 71.8457 12.4691 71.8919 12.4302C71.9356 12.3913 71.9599 12.3475 71.9599 12.294V6.90756C71.9599 6.63046 71.9332 6.48948 71.8821 6.48948C71.8238 6.48948 71.7193 6.594 71.571 6.80061L67.7499 12.1288C67.677 12.2406 67.643 12.3135 67.643 12.3524C67.643 12.4447 67.7426 12.4885 67.9444 12.4885H71.7071Z" fill="#9FA5C8"/>
</svg>
