<svg width="15" height="15" viewBox="0 0 15 15" fill="none" xmlns="http://www.w3.org/2000/svg">
<path d="M14.5871 12.5996L9.4875 7.5L14.5871 2.40043C15.1376 1.84986 15.1376 0.963491 14.5871 0.412925C14.0365 -0.137642 13.1501 -0.137642 12.5996 0.412925L7.5 5.5125L2.40043 0.412925C1.84986 -0.137642 0.963491 -0.137642 0.412925 0.412925C-0.137642 0.963491 -0.137642 1.84986 0.412925 2.40043L5.5125 7.5L0.412925 12.5996C-0.137642 13.1501 -0.137642 14.0365 0.412925 14.5871C0.963491 15.1376 1.84986 15.1376 2.40043 14.5871L7.5 9.4875L12.5996 14.5871C13.1501 15.1376 14.0365 15.1376 14.5871 14.5871C15.1337 14.0365 15.1337 13.1462 14.5871 12.5996Z" fill="black"/>
</svg>
