<svg width="16" height="11" viewBox="0 0 16 11" fill="none" xmlns="http://www.w3.org/2000/svg">
<path d="M9.02606 10.1887L15.6938 2.18736C15.9188 1.91536 16.0269 1.56528 15.9943 1.21378C15.9617 0.862288 15.7912 0.538027 15.52 0.312008C15.2489 0.0859879 14.8992 -0.0233697 14.5476 0.00788215C14.196 0.039134 13.8711 0.208448 13.644 0.478748L8.00111 7.25071L2.35818 0.478748C2.13145 0.207407 1.80629 0.0371567 1.45413 0.00539678C1.10196 -0.0263631 0.751587 0.0829648 0.479975 0.309364C0.208362 0.535763 0.0377226 0.860718 0.00554085 1.21285C-0.0266399 1.56498 0.0822687 1.91548 0.308342 2.18736L6.97624 10.1887C7.10159 10.3387 7.25834 10.4594 7.43544 10.5422C7.61253 10.625 7.80565 10.668 8.00115 10.668C8.19665 10.668 8.38977 10.625 8.56686 10.5422C8.74396 10.4594 8.90071 10.3387 9.02606 10.1887Z" fill="#9296AC"/>
</svg>
