<svg width="40" height="40" viewBox="0 0 40 40" fill="none" xmlns="http://www.w3.org/2000/svg">
<circle cx="20" cy="20" r="20" fill="#F5F5F5"/>
<path d="M12 13H28.0001C28.5524 13 29.0001 13.4476 29.0001 13.9999L29.0003 15.5857C29.0004 15.851 28.895 16.1054 28.7074 16.293L22.2929 22.7071C22.1054 22.8946 22 23.149 22 23.4142V29.7192C22 30.3698 21.3886 30.8472 20.7575 30.6894L18.7575 30.1894C18.3123 30.0781 18 29.6781 18 29.2192V23.4142C18 23.149 17.8946 22.8946 17.7071 22.7071L11.2929 16.2929C11.1054 16.1054 11 15.851 11 15.5858V14C11 13.4477 11.4477 13 12 13Z" stroke="#B2B2B2" stroke-width="1.5" stroke-linecap="round" stroke-linejoin="round"/>
</svg>
