<svg width="50" height="50" viewBox="0 0 50 50" fill="none" xmlns="http://www.w3.org/2000/svg">
<circle cx="25" cy="25" r="25" fill="#F5F5F5"/>
<path d="M15 16.25H35.0001C35.6905 16.25 36.2501 16.8096 36.2501 17.4998L36.2504 19.4821C36.2505 19.8137 36.1187 20.1317 35.8842 20.3662L27.8661 28.3839C27.6317 28.6182 27.5 28.9362 27.5 29.2677V37.149C27.5 37.9623 26.7357 38.559 25.9469 38.3617L23.4469 37.7367C22.8904 37.5976 22.5 37.0976 22.5 36.524V29.2677C22.5 28.9362 22.3683 28.6182 22.1339 28.3839L14.1161 20.3661C13.8817 20.1317 13.75 19.8138 13.75 19.4822V17.5C13.75 16.8096 14.3096 16.25 15 16.25Z" stroke="#B2B2B2" stroke-width="1.5" stroke-linecap="round" stroke-linejoin="round"/>
</svg>
