<svg width="150" height="150" viewBox="0 0 150 150" fill="none" xmlns="http://www.w3.org/2000/svg">
<path fill-rule="evenodd" clip-rule="evenodd" d="M75 0C33.5826 0 0 34.4196 0 76.9085C0 110.893 21.4955 139.688 51.2946 149.866C55.0446 150.569 56.4174 148.192 56.4174 146.15C56.4174 144.308 56.3504 139.487 56.317 133.058C35.4576 137.712 31.0379 122.746 31.0379 122.746C27.6228 113.873 22.7009 111.496 22.7009 111.496C15.904 106.708 23.2031 106.808 23.2031 106.808C30.7366 107.344 34.6875 114.743 34.6875 114.743C41.3839 126.496 52.2321 123.114 56.5179 121.138C57.1875 116.183 59.1295 112.768 61.2723 110.859C44.6317 108.917 27.1205 102.321 27.1205 72.8572C27.1205 64.4531 30.0335 57.5893 34.8214 52.2321C34.0513 50.2902 31.4732 42.4554 35.558 31.875C35.558 31.875 41.8527 29.7991 56.183 39.7433C62.1763 38.0357 68.5714 37.1987 74.9665 37.1652C81.3281 37.1987 87.7567 38.0357 93.75 39.7433C108.08 29.7991 114.342 31.875 114.342 31.875C118.426 42.4554 115.848 50.2902 115.078 52.2321C119.866 57.6228 122.779 64.4866 122.779 72.8572C122.779 102.388 105.234 108.884 88.5268 110.792C91.2054 113.17 93.6161 117.857 93.6161 125.022C93.6161 135.301 93.5156 143.605 93.5156 146.116C93.5156 148.158 94.8549 150.569 98.6719 149.799C128.538 139.654 150 110.859 150 76.9085C150 34.4196 116.417 0 75 0Z" fill="white"/>
</svg>
