<svg width="56" height="24" viewBox="0 0 56 24" fill="none" xmlns="http://www.w3.org/2000/svg">
<mask id="mask0_664_3660" style="mask-type:luminance" maskUnits="userSpaceOnUse" x="20" y="0" width="15" height="11">
<path d="M20.9062 0H34.3178V10.3813H20.9062V0Z" fill="white"/>
</mask>
<g mask="url(#mask0_664_3660)">
<path d="M23.0915 3.28617C23.0329 3.28617 22.9368 3.32146 22.894 3.36502L21.0009 5.29199C20.916 5.3776 20.9167 5.48273 21.0009 5.56759L23.9772 8.3852L25.9093 10.3122C25.9522 10.355 26.0085 10.3903 26.0671 10.3903C26.1107 10.3903 26.1512 10.3452 26.185 10.3122L28.1179 8.42425L34.2314 2.32944C34.317 2.24533 34.317 2.09964 34.2314 2.01479L32.2985 0.0878152C32.2128 0.00370739 32.1069 0.00220557 32.022 0.0878152L26.0671 6.02568L23.2493 3.36502C23.2065 3.32221 23.1501 3.28617 23.0915 3.28617Z" fill="#4A58A9"/>
</g>
<path d="M11.7994 17.206C11.5838 17.2984 11.3224 17.39 11.0151 17.4674C10.7071 17.5598 10.3841 17.6213 10.0769 17.6829C9.75383 17.7437 9.44583 17.7903 9.13783 17.8211C8.83058 17.8519 8.56916 17.8669 8.35356 17.8669C7.83071 17.8669 7.36871 17.8211 6.96906 17.6979C6.55363 17.5905 6.21483 17.4058 5.93839 17.1445C5.66119 16.8982 5.44559 16.5602 5.30736 16.1292C5.15336 15.7139 5.09176 15.1912 5.09176 14.5762C5.09176 13.8996 5.16914 13.3461 5.33816 12.9C5.49216 12.469 5.70776 12.131 5.99999 11.8697C6.27643 11.6234 6.59946 11.4544 6.98408 11.3463C7.35368 11.2539 7.76911 11.2081 8.19956 11.2081C8.44596 11.2081 8.7224 11.2389 9.0612 11.2697C9.3692 11.3155 9.69223 11.3621 10.0303 11.4236C10.3383 11.4852 10.6455 11.5618 10.9535 11.6384C11.2457 11.7308 11.4921 11.8231 11.707 11.9155V8.33267L11.0459 8.00901C10.7687 7.91739 10.4915 7.80925 10.1843 7.71688C9.86125 7.64028 9.52245 7.57871 9.1844 7.51713C8.8148 7.47132 8.46098 7.44053 8.09213 7.44053C7.10728 7.44053 6.19981 7.56369 5.35394 7.77846C4.49229 8.02478 3.75384 8.40927 3.12282 8.94771C2.47677 9.50117 1.98472 10.2394 1.6309 11.1465C1.2613 12.0695 1.07725 13.2229 1.07725 14.5762C1.07725 19.2975 3.36922 21.666 7.98396 21.666C8.35356 21.666 8.7224 21.6352 9.10703 21.5887C9.47663 21.5271 9.84548 21.4655 10.1843 21.3889C10.5223 21.2965 10.8303 21.2199 11.1225 21.1276C11.3997 21.0194 11.6304 20.9278 11.8152 20.8354L11.7994 17.206ZM13.5993 16.4063L13.6151 22.2345L12.646 22.6498C12.2456 22.788 11.846 22.9269 11.4148 23.05C10.9685 23.1724 10.5223 23.2648 10.0611 23.3572C9.59983 23.4188 9.1536 23.4653 8.7532 23.4653C7.43031 23.4653 6.26141 23.2806 5.27656 22.9419C4.27669 22.5882 3.40002 22.0347 2.63077 21.2658C0.876673 19.9433 0 17.7137 0 14.5762C0 13.0074 0.199824 11.7 0.631024 10.6389C1.04645 9.59354 1.6309 8.7472 2.36934 8.10138C3.09202 7.48634 3.95367 7.04026 4.93851 6.76391C5.90759 6.50258 6.95328 6.36365 8.09213 6.36365C8.50756 6.36365 8.938 6.41021 9.38423 6.47179C9.81468 6.5634 10.2301 6.65577 10.6455 6.77893C11.0459 6.91711 11.4456 7.05604 11.8152 7.20998C12.169 7.37895 12.492 7.54792 12.7842 7.70186L13.5069 8.50164V14.2841C13.1381 14.1301 12.7377 13.9611 12.3072 13.8072C11.8768 13.6532 11.4456 13.5151 11.0301 13.3919C10.5997 13.2845 10.2151 13.1922 9.86125 13.1148C9.49165 13.0532 9.1844 13.0074 8.9688 13.0074C8.66155 13.0074 8.39938 13.0382 8.15373 13.0998C7.89231 13.1764 7.67671 13.2995 7.49191 13.4685C7.30711 13.6532 7.15386 13.8838 7.06146 14.1759C6.93826 14.4838 6.89168 14.8833 6.89168 15.3452C6.89168 15.837 6.93826 16.2373 7.06146 16.5444C7.38448 16.7134 7.81493 16.7908 8.35356 16.7908C8.53836 16.7908 8.8148 16.76 9.1536 16.6984C9.49165 16.6368 9.86125 16.5602 10.2917 16.4371C10.6921 16.3447 11.1225 16.2065 11.5838 16.0526C12.03 15.8986 12.4612 15.7447 12.8766 15.5607L13.5993 16.4063Z" fill="#4A58A9"/>
<path d="M13.92 7.64036V21.4814H18.0577V16.2982H21.3654V21.4814H25.5038V7.64036H21.3654V12.3924H18.0577V7.64036H13.92ZM19.135 6.56348L19.8577 7.37902V11.3156H20.2889V6.56348H26.5803L27.3037 7.37902V23.2807H21.1039L20.2889 22.5575V18.0975H19.8577V23.2807H13.6578L12.8428 22.5575V6.56348H19.135Z" fill="#4A58A9"/>
<path d="M32.4934 11.3926C32.8014 11.3926 33.0779 11.4076 33.3401 11.4234C33.5857 11.4542 33.8013 11.5 33.9861 11.5773C34.1551 11.669 34.2934 11.8079 34.4015 11.9611C34.4932 12.1458 34.5398 12.3764 34.5398 12.6692C34.5398 13.1761 34.3707 13.5148 34.0627 13.6688C33.7397 13.8377 33.2169 13.9143 32.4934 13.9143H31.755V11.3926H32.4934ZM27.6173 7.64005V21.481H31.755V17.6977H32.9705C34.9394 17.6977 36.3855 17.2982 37.2937 16.4676C38.1854 15.6678 38.6474 14.407 38.6474 12.6843C38.6474 11.6998 38.4934 10.8692 38.2012 10.2083C37.8932 9.56252 37.4936 9.05487 36.9857 8.67037C36.4629 8.30165 35.8476 8.02454 35.14 7.8706C34.4323 7.71665 33.6631 7.64005 32.863 7.64005H27.6173ZM32.863 6.56317C33.4783 6.56317 34.0627 6.60973 34.6322 6.67131C35.1858 6.74791 35.7244 6.87107 36.2165 7.02501C36.7085 7.20975 37.1548 7.42453 37.5702 7.68586C37.9706 7.96297 38.3244 8.31667 38.6317 8.71618L38.9547 9.02408C39.4167 9.50094 39.7855 10.101 40.0627 10.8084C40.3084 11.5308 40.4474 12.4072 40.4474 13.4533C40.4474 14.4986 40.3084 15.3907 40.0627 16.1447C39.7855 16.9137 39.3859 17.5287 38.8473 18.0206C38.2936 18.5283 37.601 18.897 36.7701 19.1283C35.9092 19.3738 34.9086 19.497 33.7397 19.497H33.5549V23.2804H27.3551L26.54 22.5572V6.56317H32.863Z" fill="#4A58A9"/>
<path d="M47.4767 11.1319C48.2459 11.1319 48.8612 11.4083 49.3074 11.9467C49.7378 12.5002 49.9685 13.3615 49.9685 14.4993C49.9685 15.6685 49.7378 16.4991 49.2916 17.0217C48.8304 17.5602 48.2151 17.8215 47.4151 17.8215C46.6766 17.8215 46.0764 17.5602 45.6459 17.0217C45.1997 16.4991 44.9841 15.6685 44.9841 14.4993C44.9841 13.3615 45.1997 12.5002 45.6459 11.9467C46.0764 11.4083 46.6916 11.1319 47.4767 11.1319ZM54.1993 14.5608C54.1993 13.4231 54.0303 12.3928 53.7223 11.5007C53.3993 10.6243 52.953 9.88609 52.3686 9.27105C51.7684 8.6868 51.0607 8.22496 50.2457 7.90205C49.4148 7.5949 48.4916 7.44096 47.4767 7.44096C46.461 7.44096 45.5378 7.5949 44.7227 7.90205C43.8918 8.22496 43.1842 8.6868 42.5998 9.27105C41.9995 9.88609 41.5383 10.6243 41.2303 11.5007C40.9073 12.3928 40.754 13.4231 40.754 14.5608C40.754 15.7143 40.9073 16.7296 41.2303 17.606C41.5383 18.4981 41.9995 19.2363 42.5998 19.8514C43.1842 20.4356 43.8918 20.8975 44.7227 21.2204C45.5378 21.5275 46.461 21.6815 47.4767 21.6815C48.4916 21.6815 49.4148 21.5275 50.2457 21.2204C51.0607 20.8975 51.7684 20.4356 52.3686 19.8514C52.953 19.2363 53.3993 18.4981 53.7223 17.606C54.0303 16.7296 54.1993 15.7143 54.1993 14.5608ZM42.4615 21.2204C41.5691 20.528 40.8765 19.6208 40.3994 18.5132C39.9074 17.4062 39.6768 16.0988 39.6768 14.5608C39.6768 13.2384 39.8616 12.0699 40.2304 11.0396C40.6 10.0243 41.1229 9.17868 41.8155 8.47128C42.4923 7.79466 43.3074 7.27124 44.2765 6.90252C45.2305 6.54881 46.292 6.36407 47.4767 6.36407C48.7996 6.36407 49.9993 6.59462 51.0457 7.04069C52.0764 7.50253 52.938 8.16338 53.6149 9.04051L53.7689 9.1937L53.8297 9.24026C54.5223 9.94767 55.061 10.7933 55.4456 11.7928C55.8144 12.8081 55.9992 13.9924 55.9992 15.3298C55.9992 16.6523 55.8144 17.8057 55.4456 18.821C55.076 19.8363 54.5531 20.6819 53.8763 21.3893C53.1994 22.066 52.3836 22.5886 51.4303 22.9581C50.4763 23.296 49.4148 23.4808 48.2459 23.4808C45.8916 23.4808 44.0301 22.7884 42.6614 21.4201L42.4615 21.2204ZM46.784 15.2682C46.784 15.884 46.8456 16.3451 46.9839 16.6831C47.1071 16.7296 47.246 16.7446 47.4151 16.7446C47.8763 16.7446 48.2301 16.5757 48.5073 16.2069C48.753 15.8532 48.892 15.284 48.892 14.4993C48.892 13.8842 48.7996 13.3773 48.6305 12.9928C48.5073 12.962 48.3841 12.9312 48.2459 12.9312C47.7839 12.9312 47.4151 13.131 47.1687 13.4997C46.9072 13.8842 46.784 14.4692 46.784 15.2682Z" fill="#4A58A9"/>
</svg>
