<svg width="160" height="68" viewBox="0 0 160 68" fill="none" xmlns="http://www.w3.org/2000/svg">
<mask id="mask0_303_5529" style="mask-type:luminance" maskUnits="userSpaceOnUse" x="59" y="0" width="40" height="30">
<path d="M59.7334 0H98.0545V29.6628H59.7334V0Z" fill="white"/>
</mask>
<g mask="url(#mask0_303_5529)">
<path d="M65.9751 9.38992C65.8076 9.38992 65.5329 9.49077 65.4105 9.61523L60.0014 15.1212C59.7589 15.3658 59.761 15.6662 60.0014 15.9087L68.5058 23.9595L74.0265 29.4655C74.1489 29.5878 74.3098 29.6887 74.4773 29.6887C74.6018 29.6887 74.7177 29.5599 74.8143 29.4655L80.3372 24.0711L97.8052 6.65624C98.0499 6.41592 98.0499 5.99965 97.8052 5.75718L92.2823 0.251191C92.0376 0.0108678 91.735 0.0065766 91.4924 0.251191L74.4773 17.2176L66.4258 9.61523C66.3035 9.49292 66.1425 9.38992 65.9751 9.38992Z" fill="#4A58A9"/>
</g>
<path d="M33.7147 49.1634C33.0987 49.4273 32.3517 49.6891 31.4738 49.9101C30.5938 50.174 29.6708 50.35 28.7929 50.5259C27.8699 50.6997 26.9898 50.8328 26.1098 50.9207C25.2319 51.0087 24.4849 51.0516 23.8688 51.0516C22.3749 51.0516 21.0548 50.9207 19.9129 50.5688C18.7259 50.262 17.7578 49.7342 16.9679 48.9874C16.1759 48.2836 15.5598 47.318 15.1649 46.0864C14.7248 44.8998 14.5488 43.4063 14.5488 41.649C14.5488 39.7157 14.7699 38.1343 15.2529 36.8597C15.6929 35.628 16.3089 34.6624 17.1439 33.9157C17.9338 33.2119 18.8568 32.7291 19.9558 32.4201C21.0119 32.1562 22.1989 32.0253 23.4288 32.0253C24.1329 32.0253 24.9228 32.1133 25.8908 32.2013C26.7709 32.3322 27.6939 32.4652 28.6598 32.6411C29.5398 32.8171 30.4177 33.036 31.2978 33.2548C32.1328 33.5188 32.8368 33.7827 33.4507 34.0466V23.8093L31.5618 22.8844C30.7698 22.6227 29.9777 22.3137 29.0998 22.0497C28.1768 21.8309 27.2088 21.6549 26.2428 21.479C25.1868 21.3481 24.1758 21.2601 23.1219 21.2601C20.3078 21.2601 17.7149 21.612 15.298 22.2257C12.8359 22.9295 10.726 24.0281 8.92291 25.5666C7.07694 27.148 5.671 29.2573 4.66 31.8494C3.60394 34.4865 3.07805 37.7823 3.07805 41.649C3.07805 55.1393 9.62696 61.907 22.8128 61.907C23.8688 61.907 24.9228 61.819 26.0218 61.686C27.0778 61.51 28.1317 61.3341 29.0998 61.1152C30.0657 60.8513 30.9458 60.6324 31.7808 60.3685C32.5728 60.0595 33.2318 59.7977 33.7598 59.5338L33.7147 49.1634ZM38.8577 46.8782L38.9028 63.5313L36.1338 64.7179C34.9897 65.1127 33.8478 65.5097 32.6157 65.8616C31.3407 66.2113 30.0657 66.4753 28.7478 66.7392C27.4298 66.9151 26.1548 67.0482 25.0108 67.0482C21.2308 67.0482 17.8909 66.5203 15.0769 65.5526C12.2199 64.5419 9.71496 62.9605 7.51697 60.7633C2.50494 56.9846 0 50.6139 0 41.649C0 37.1665 0.570963 33.4308 1.80304 30.3988C2.99004 27.412 4.66 24.9937 6.76999 23.1484C8.8349 21.391 11.2969 20.1164 14.1109 19.3268C16.8799 18.5801 19.8678 18.1831 23.1219 18.1831C24.3089 18.1831 25.5388 18.3161 26.8138 18.4921C28.0437 18.7539 29.2307 19.0178 30.4177 19.3697C31.5618 19.7645 32.7037 20.1615 33.7598 20.6014C34.7708 21.0842 35.6938 21.5669 36.5288 22.0068L38.5937 24.292V40.8143C37.5398 40.3744 36.3957 39.8916 35.1658 39.4517C33.9358 39.0119 32.7037 38.617 31.5167 38.2651C30.2868 37.9583 29.1878 37.6944 28.1768 37.4734C27.1208 37.2974 26.2428 37.1665 25.6268 37.1665C24.7489 37.1665 23.9998 37.2545 23.2979 37.4304C22.5509 37.6493 21.9349 38.0012 21.4068 38.484C20.8788 39.0119 20.4409 39.6706 20.1769 40.5053C19.8249 41.3851 19.6918 42.5266 19.6918 43.8462C19.6918 45.2517 19.8249 46.3954 20.1769 47.273C21.0999 47.7558 22.3298 47.9768 23.8688 47.9768C24.3969 47.9768 25.1868 47.8888 26.1548 47.7129C27.1208 47.5369 28.1768 47.318 29.4068 46.9661C30.5508 46.7022 31.7808 46.3074 33.0987 45.8675C34.3737 45.4276 35.6058 44.9878 36.7928 44.4621L38.8577 46.8782Z" fill="#4A58A9"/>
<path d="M39.7792 21.8305V61.3788H51.602V46.5688H61.053V61.3788H72.8779V21.8305H61.053V35.4088H51.602V21.8305H39.7792ZM54.6801 18.7535L56.745 21.0838V32.3318H57.9771V18.7535H75.9538L78.0209 21.0838V66.52H60.306L57.9771 64.4536V51.71H56.745V66.52H39.0301L36.7012 64.4536V18.7535H54.6801Z" fill="#4A58A9"/>
<path d="M92.8331 32.5528C93.7132 32.5528 94.5031 32.5957 95.2522 32.6408C95.9541 32.7288 96.5701 32.8597 97.0982 33.0807C97.5811 33.3425 97.9761 33.7394 98.2852 34.1772C98.547 34.705 98.6801 35.3638 98.6801 36.2006C98.6801 37.649 98.1972 38.6167 97.3171 39.0566C96.3941 39.5394 94.9002 39.7582 92.8331 39.7582H90.7231V32.5528H92.8331ZM78.9003 21.8305V61.3788H90.7231V50.5685H94.1961C99.822 50.5685 103.954 49.427 106.549 47.0538C109.097 44.7686 110.417 41.1659 110.417 36.2435C110.417 33.4304 109.977 31.0572 109.142 29.169C108.262 27.3236 107.12 25.8731 105.669 24.7745C104.175 23.7209 102.417 22.9292 100.395 22.4893C98.3732 22.0494 96.1752 21.8305 93.8892 21.8305H78.9003ZM93.8892 18.7535C95.6471 18.7535 97.3171 18.8866 98.9441 19.0625C100.526 19.2814 102.065 19.6333 103.471 20.0732C104.877 20.601 106.152 21.2147 107.339 21.9614C108.483 22.7532 109.494 23.7639 110.372 24.9054L111.295 25.7851C112.615 27.1477 113.669 28.8621 114.461 30.8834C115.163 32.9476 115.56 35.4517 115.56 38.4408C115.56 41.4276 115.163 43.9768 114.461 46.1311C113.669 48.3284 112.527 50.0857 110.988 51.4912C109.406 52.9417 107.427 53.9953 105.053 54.6562C102.593 55.3578 99.734 55.7097 96.3941 55.7097H95.8661V66.52H78.1512L75.8223 64.4536V18.7535H93.8892Z" fill="#4A58A9"/>
<path d="M135.648 31.8064C137.846 31.8064 139.604 32.5961 140.879 34.1346C142.109 35.716 142.768 38.1772 142.768 41.428C142.768 44.7689 142.109 47.1421 140.834 48.6355C139.516 50.174 137.758 50.9208 135.472 50.9208C133.362 50.9208 131.647 50.174 130.417 48.6355C129.142 47.1421 128.526 44.7689 128.526 41.428C128.526 38.1772 129.142 35.716 130.417 34.1346C131.647 32.5961 133.405 31.8064 135.648 31.8064ZM154.857 41.6039C154.857 38.3531 154.374 35.4092 153.494 32.86C152.571 30.3559 151.296 28.2467 149.626 26.4893C147.911 24.8199 145.889 23.5003 143.56 22.5776C141.186 21.7 138.548 21.2601 135.648 21.2601C132.746 21.2601 130.108 21.7 127.779 22.5776C125.405 23.5003 123.383 24.8199 121.713 26.4893C119.998 28.2467 118.68 30.3559 117.8 32.86C116.877 35.4092 116.439 38.3531 116.439 41.6039C116.439 44.8998 116.877 47.8008 117.8 50.3049C118.68 52.8541 119.998 54.9633 121.713 56.7207C123.383 58.3901 125.405 59.7097 127.779 60.6324C130.108 61.51 132.746 61.9499 135.648 61.9499C138.548 61.9499 141.186 61.51 143.56 60.6324C145.889 59.7097 147.911 58.3901 149.626 56.7207C151.296 54.9633 152.571 52.8541 153.494 50.3049C154.374 47.8008 154.857 44.8998 154.857 41.6039ZM121.318 60.6324C118.768 58.654 116.789 56.062 115.426 52.897C114.02 49.7342 113.361 45.9984 113.361 41.6039C113.361 37.8253 113.889 34.4865 114.943 31.5425C115.999 28.6415 117.493 26.2254 119.472 24.2041C121.406 22.2708 123.735 20.7752 126.504 19.7216C129.23 18.711 132.263 18.1831 135.648 18.1831C139.428 18.1831 142.856 18.8418 145.846 20.1164C148.791 21.4361 151.253 23.3243 153.187 25.8305L153.627 26.2683L153.801 26.4013C155.78 28.4226 157.319 30.8387 158.418 33.6947C159.472 36.5958 160 39.9796 160 43.8012C160 47.5798 159.472 50.8757 158.418 53.7767C157.362 56.6778 155.868 59.0939 153.934 61.1152C152 63.0485 149.669 64.5419 146.945 65.5977C144.219 66.5632 141.186 67.0911 137.846 67.0911C131.119 67.0911 125.8 65.1127 121.889 61.2032L121.318 60.6324ZM133.669 43.6252C133.669 45.3847 133.845 46.7022 134.24 47.6678C134.592 47.8008 134.989 47.8438 135.472 47.8438C136.79 47.8438 137.801 47.361 138.593 46.3074C139.295 45.2968 139.692 43.6703 139.692 41.428C139.692 39.6706 139.428 38.2222 138.945 37.1236C138.593 37.0356 138.241 36.9477 137.846 36.9477C136.526 36.9477 135.472 37.5184 134.768 38.572C134.021 39.6706 133.669 41.3421 133.669 43.6252Z" fill="#4A58A9"/>
</svg>
