<svg width="184" height="126" viewBox="0 0 184 126" fill="none" xmlns="http://www.w3.org/2000/svg">
<mask id="mask0_303_5673" style="mask-type:luminance" maskUnits="userSpaceOnUse" x="68" y="0" width="45" height="35">
<path d="M68.6943 0H112.771V34.1241H68.6943V0Z" fill="white"/>
</mask>
<g mask="url(#mask0_303_5673)">
<path d="M75.8729 10.8018C75.6804 10.8018 75.3644 10.9178 75.2237 11.0609L69.0031 17.395C68.7242 17.6764 68.7242 18.022 69.0031 18.301L78.7807 27.5627L85.1321 33.8967C85.2728 34.0374 85.458 34.1535 85.6505 34.1535C85.7912 34.1535 85.927 34.0054 86.038 33.8967L92.3894 27.691L112.475 7.65693C112.759 7.38046 112.757 6.90158 112.475 6.62264L106.126 0.288553C105.843 0.0120842 105.497 0.00714692 105.218 0.288553L85.6505 19.8067L76.3913 11.0609C76.2506 10.9202 76.0654 10.8018 75.8729 10.8018Z" fill="white"/>
</g>
<path d="M38.7722 56.5576C38.0638 56.8612 37.2047 57.1623 36.1951 57.4166C35.1831 57.7202 34.1216 57.9226 33.112 58.125C32.0506 58.325 31.0385 58.478 30.0264 58.5792C29.0168 58.6805 28.1578 58.7298 27.4494 58.7298C25.7313 58.7298 24.2132 58.5792 22.9 58.1744C21.5349 57.8214 20.4216 57.2142 19.5132 56.3552C18.6024 55.5455 17.8939 54.4347 17.4397 53.0178C16.9337 51.6527 16.7313 49.9347 16.7313 47.913C16.7313 45.6889 16.9855 43.8697 17.5409 42.4034C18.047 40.9865 18.7554 39.8757 19.7156 39.0166C20.624 38.207 21.6855 37.6516 22.9493 37.2961C24.1638 36.9925 25.5289 36.8419 26.9433 36.8419C27.753 36.8419 28.6614 36.9431 29.7747 37.0443C30.7867 37.1949 31.8482 37.348 32.959 37.5504C33.9711 37.7528 34.9807 38.0046 35.9927 38.2564C36.953 38.56 37.7626 38.8636 38.4686 39.1672V27.3902L36.2963 26.3263C35.3855 26.0251 34.4746 25.6696 33.465 25.366C32.4036 25.1142 31.2903 24.9118 30.1795 24.7094C28.965 24.5588 27.8023 24.4576 26.5903 24.4576C23.3542 24.4576 20.3723 24.8625 17.5928 25.5684C14.7614 26.3781 12.3349 27.642 10.2614 29.4118C8.13854 31.2311 6.52169 33.6576 5.35904 36.6395C4.14456 39.6733 3.53978 43.4648 3.53978 47.913C3.53978 63.4323 11.0711 71.2178 26.2349 71.2178C27.4494 71.2178 28.6614 71.1166 29.9252 70.9635C31.1397 70.7611 32.3517 70.5587 33.465 70.3069C34.5758 70.0033 35.5879 69.7515 36.5481 69.4479C37.459 69.0924 38.2168 68.7913 38.8241 68.4877L38.7722 56.5576ZM44.6867 53.9287L44.7385 73.0864L41.5542 74.4515C40.2385 74.9057 38.9253 75.3624 37.5084 75.7672C36.0421 76.1695 34.5758 76.4732 33.0602 76.7768C31.5445 76.9792 30.0783 77.1322 28.7626 77.1322C24.4156 77.1322 20.5747 76.525 17.3385 75.4117C14.053 74.2491 11.1723 72.4298 8.64457 69.9021C2.8807 65.5551 0 58.2263 0 47.913C0 42.7564 0.656612 38.4588 2.07351 34.9708C3.43858 31.5347 5.35904 28.7528 7.78555 26.6299C10.1602 24.6082 12.9915 23.1419 16.2277 22.2335C19.412 21.3745 22.8481 20.9178 26.5903 20.9178C27.9554 20.9178 29.3698 21.0709 30.8361 21.2733C32.2505 21.5745 33.6156 21.8781 34.9807 22.2829C36.2963 22.7371 37.6096 23.1938 38.8241 23.6998C39.9867 24.2552 41.0481 24.8106 42.0084 25.3167L44.383 27.9456V46.9528C43.171 46.4467 41.8553 45.8913 40.4409 45.3853C39.0265 44.8793 37.6096 44.4251 36.2445 44.0202C34.8301 43.6672 33.5662 43.3636 32.4036 43.1094C31.1891 42.9069 30.1795 42.7564 29.471 42.7564C28.4614 42.7564 27.5999 42.8576 26.7927 43.06C25.9337 43.3118 25.2253 43.7166 24.618 44.272C24.0108 44.8793 23.5072 45.6371 23.2036 46.5973C22.7988 47.6094 22.6457 48.9226 22.6457 50.4407C22.6457 52.0576 22.7988 53.3732 23.2036 54.3829C24.265 54.9383 25.6795 55.1925 27.4494 55.1925C28.0566 55.1925 28.965 55.0913 30.0783 54.8889C31.1891 54.6865 32.4036 54.4347 33.818 54.0299C35.1337 53.7262 36.5481 53.272 38.0638 52.766C39.53 52.26 40.9469 51.7539 42.312 51.1492L44.6867 53.9287Z" fill="white"/>
<path d="M45.7488 25.1142V70.6106H59.3451V53.5732H70.2137V70.6106H83.8125V25.1142H70.2137V40.7347H59.3451V25.1142H45.7488ZM62.8849 21.5745L65.2595 24.2552V37.1949H66.6764V21.5745H87.3498L89.727 24.2552V76.525H69.3547L66.6764 74.1479V59.4877H65.2595V76.525H44.8873L42.209 74.1479V21.5745H62.8849Z" fill="white"/>
<path d="M106.759 37.4486C107.771 37.4486 108.679 37.4979 109.541 37.5498C110.348 37.651 111.056 37.8016 111.664 38.0558C112.219 38.357 112.673 38.8136 113.029 39.3172C113.33 39.9244 113.483 40.6823 113.483 41.645C113.483 43.3112 112.928 44.4245 111.916 44.9305C110.854 45.4859 109.136 45.7377 106.759 45.7377H104.332V37.4486H106.759ZM90.7361 25.1136V70.61H104.332V58.1738H108.326C114.796 58.1738 119.548 56.8606 122.532 54.1305C125.462 51.5016 126.981 47.357 126.981 41.6943C126.981 38.4582 126.475 35.728 125.514 33.5558C124.502 31.4329 123.189 29.7642 121.52 28.5004C119.802 27.2884 117.781 26.3775 115.455 25.8715C113.13 25.3654 110.602 25.1136 107.973 25.1136H90.7361ZM107.973 21.5739C109.995 21.5739 111.916 21.7269 113.787 21.9293C115.606 22.1811 117.376 22.5859 118.993 23.092C120.609 23.6992 122.076 24.4052 123.441 25.2642C124.756 26.1751 125.919 27.3377 126.929 28.6509L127.99 29.663C129.508 31.2305 130.72 33.2028 131.631 35.5281C132.438 37.9028 132.895 40.7835 132.895 44.222C132.895 47.6581 132.438 50.5907 131.631 53.069C130.72 55.5967 129.407 57.6184 127.637 59.2353C125.818 60.9039 123.542 62.116 120.812 62.8763C117.983 63.6834 114.695 64.0883 110.854 64.0883H110.247V76.5244H89.8746L87.1963 74.1473V21.5739H107.973Z" fill="white"/>
<path d="M155.995 36.5897C158.523 36.5897 160.545 37.4981 162.011 39.2679C163.425 41.0872 164.183 43.9185 164.183 47.6583C164.183 51.5017 163.425 54.2318 161.959 55.9498C160.444 57.7197 158.422 58.5788 155.793 58.5788C153.366 58.5788 151.394 57.7197 149.98 55.9498C148.513 54.2318 147.805 51.5017 147.805 47.6583C147.805 43.9185 148.513 41.0872 149.98 39.2679C151.394 37.4981 153.416 36.5897 155.995 36.5897ZM178.086 47.8607C178.086 44.121 177.53 40.7342 176.518 37.8017C175.457 34.921 173.99 32.4945 172.07 30.4728C170.098 28.5523 167.772 27.0342 165.094 25.9728C162.364 24.9632 159.33 24.4571 155.995 24.4571C152.658 24.4571 149.624 24.9632 146.946 25.9728C144.216 27.0342 141.891 28.5523 139.97 30.4728C137.998 32.4945 136.482 34.921 135.47 37.8017C134.409 40.7342 133.905 44.121 133.905 47.8607C133.905 51.6522 134.409 54.9896 135.47 57.8703C136.482 60.8029 137.998 63.2294 139.97 65.251C141.891 67.1715 144.216 68.6896 146.946 69.751C149.624 70.7607 152.658 71.2667 155.995 71.2667C159.33 71.2667 162.364 70.7607 165.094 69.751C167.772 68.6896 170.098 67.1715 172.07 65.251C173.99 63.2294 175.457 60.8029 176.518 57.8703C177.53 54.9896 178.086 51.6522 178.086 47.8607ZM139.516 69.751C136.583 67.4751 134.307 64.4932 132.74 60.8522C131.123 57.2137 130.365 52.9161 130.365 47.8607C130.365 43.5137 130.972 39.6728 132.184 36.286C133.399 32.9487 135.117 30.1692 137.393 27.8439C139.617 25.6198 142.295 23.8993 145.48 22.6872C148.615 21.5246 152.103 20.9174 155.995 20.9174C160.342 20.9174 164.284 21.6752 167.723 23.1414C171.11 24.6596 173.941 26.8318 176.165 29.715L176.671 30.2185L176.871 30.3716C179.147 32.6969 180.917 35.4764 182.181 38.7619C183.393 42.0993 184 45.9921 184 50.3884C184 54.7354 183.393 58.5269 182.181 61.8643C180.966 65.2017 179.248 67.9812 177.024 70.3065C174.8 72.5305 172.119 74.2486 168.987 75.4631C165.852 76.5739 162.364 77.1811 158.523 77.1811C150.787 77.1811 144.67 74.9052 140.172 70.4077L139.516 69.751ZM153.719 50.186C153.719 52.2101 153.922 53.7258 154.376 54.8366C154.781 54.9896 155.238 55.039 155.793 55.039C157.309 55.039 158.471 54.4836 159.382 53.2716C160.189 52.1089 160.646 50.2378 160.646 47.6583C160.646 45.6366 160.342 43.9704 159.787 42.7065C159.382 42.6053 158.977 42.5041 158.523 42.5041C157.005 42.5041 155.793 43.1607 154.983 44.3727C154.124 45.6366 153.719 47.5595 153.719 50.186Z" fill="white"/>
<path d="M7.99711 121.381C6.97044 121.381 6.02378 121.208 5.15711 120.861C4.30378 120.501 3.55711 120.001 2.91711 119.361C2.29044 118.708 1.80378 117.941 1.45711 117.061C1.11044 116.168 0.937109 115.194 0.937109 114.141C0.937109 113.114 1.11711 112.168 1.47711 111.301C1.83711 110.421 2.34378 109.661 2.99711 109.021C3.65044 108.368 4.41711 107.861 5.29711 107.501C6.17711 107.141 7.13044 106.961 8.15711 106.961C8.82378 106.961 9.47711 107.054 10.1171 107.241C10.7704 107.414 11.3638 107.674 11.8971 108.021C12.4438 108.368 12.9104 108.781 13.2971 109.261L11.4171 111.341C11.0971 111.021 10.7638 110.748 10.4171 110.521C10.0838 110.281 9.72378 110.101 9.33711 109.981C8.96378 109.848 8.56378 109.781 8.13711 109.781C7.56378 109.781 7.02378 109.888 6.51711 110.101C6.02378 110.314 5.59044 110.614 5.21711 111.001C4.84378 111.374 4.54378 111.834 4.31711 112.381C4.10378 112.914 3.99711 113.508 3.99711 114.161C3.99711 114.828 4.10378 115.434 4.31711 115.981C4.53044 116.514 4.83044 116.974 5.21711 117.361C5.60378 117.734 6.06378 118.028 6.59711 118.241C7.14378 118.441 7.74378 118.541 8.39711 118.541C8.82378 118.541 9.23711 118.481 9.63711 118.361C10.0371 118.241 10.4038 118.074 10.7371 117.861C11.0838 117.648 11.3904 117.401 11.6571 117.121L13.1171 119.461C12.7971 119.821 12.3638 120.148 11.8171 120.441C11.2838 120.734 10.6838 120.968 10.0171 121.141C9.35044 121.301 8.67711 121.381 7.99711 121.381ZM24.4662 121.181V107.181H27.4662V121.181H24.4662ZM15.6462 121.181V107.181H18.6462V121.181H15.6462ZM16.8462 115.561L16.8662 112.841H26.0062V115.561H16.8462ZM31.1149 121.181V107.181H40.5749V109.821H34.0349V118.541H40.7149V121.181H31.1149ZM32.5149 115.321V112.761H39.6149V115.321H32.5149ZM49.9502 121.381C48.9236 121.381 47.9769 121.208 47.1102 120.861C46.2569 120.501 45.5102 120.001 44.8702 119.361C44.2436 118.708 43.7569 117.941 43.4102 117.061C43.0636 116.168 42.8902 115.194 42.8902 114.141C42.8902 113.114 43.0702 112.168 43.4302 111.301C43.7902 110.421 44.2969 109.661 44.9502 109.021C45.6036 108.368 46.3702 107.861 47.2502 107.501C48.1302 107.141 49.0836 106.961 50.1102 106.961C50.7769 106.961 51.4302 107.054 52.0702 107.241C52.7236 107.414 53.3169 107.674 53.8502 108.021C54.3969 108.368 54.8636 108.781 55.2502 109.261L53.3702 111.341C53.0502 111.021 52.7169 110.748 52.3702 110.521C52.0369 110.281 51.6769 110.101 51.2902 109.981C50.9169 109.848 50.5169 109.781 50.0902 109.781C49.5169 109.781 48.9769 109.888 48.4702 110.101C47.9769 110.314 47.5436 110.614 47.1702 111.001C46.7969 111.374 46.4969 111.834 46.2702 112.381C46.0569 112.914 45.9502 113.508 45.9502 114.161C45.9502 114.828 46.0569 115.434 46.2702 115.981C46.4836 116.514 46.7836 116.974 47.1702 117.361C47.5569 117.734 48.0169 118.028 48.5502 118.241C49.0969 118.441 49.6969 118.541 50.3502 118.541C50.7769 118.541 51.1902 118.481 51.5902 118.361C51.9902 118.241 52.3569 118.074 52.6902 117.861C53.0369 117.648 53.3436 117.401 53.6102 117.121L55.0702 119.461C54.7502 119.821 54.3169 120.148 53.7702 120.441C53.2369 120.734 52.6369 120.968 51.9702 121.141C51.3036 121.301 50.6302 121.381 49.9502 121.381ZM59.8593 117.041L59.2193 114.321L66.2993 107.181H69.9393L59.8593 117.041ZM57.5993 121.181V107.181H60.5993V121.181H57.5993ZM66.6793 121.181L61.4393 114.221L63.4993 112.441L70.2393 121.181H66.6793ZM78.4782 121.181V107.181H84.4182C85.2449 107.181 85.9915 107.381 86.6582 107.781C87.3382 108.168 87.8715 108.701 88.2582 109.381C88.6582 110.061 88.8582 110.828 88.8582 111.681C88.8582 112.548 88.6582 113.328 88.2582 114.021C87.8715 114.714 87.3382 115.268 86.6582 115.681C85.9915 116.081 85.2449 116.281 84.4182 116.281H81.4782V121.181H78.4782ZM81.4382 113.581H84.0782C84.3982 113.581 84.6849 113.501 84.9382 113.341C85.1915 113.168 85.3915 112.941 85.5382 112.661C85.6982 112.381 85.7782 112.061 85.7782 111.701C85.7782 111.341 85.6982 111.028 85.5382 110.761C85.3915 110.481 85.1915 110.268 84.9382 110.121C84.6849 109.961 84.3982 109.881 84.0782 109.881H81.4382V113.581ZM97.7446 121.381C96.7179 121.381 95.7713 121.201 94.9046 120.841C94.0379 120.481 93.2779 119.981 92.6246 119.341C91.9846 118.688 91.4913 117.921 91.1446 117.041C90.7979 116.148 90.6246 115.181 90.6246 114.141C90.6246 113.088 90.7979 112.128 91.1446 111.261C91.4913 110.381 91.9846 109.614 92.6246 108.961C93.2779 108.308 94.0379 107.801 94.9046 107.441C95.7713 107.081 96.7179 106.901 97.7446 106.901C98.7846 106.901 99.7313 107.081 100.585 107.441C101.451 107.801 102.205 108.308 102.845 108.961C103.498 109.614 103.998 110.381 104.345 111.261C104.691 112.141 104.865 113.101 104.865 114.141C104.865 115.181 104.691 116.141 104.345 117.021C103.998 117.901 103.498 118.668 102.845 119.321C102.205 119.974 101.451 120.481 100.585 120.841C99.7313 121.201 98.7846 121.381 97.7446 121.381ZM97.7446 118.541C98.3313 118.541 98.8713 118.434 99.3646 118.221C99.8713 118.008 100.305 117.701 100.665 117.301C101.025 116.901 101.305 116.434 101.505 115.901C101.718 115.368 101.825 114.781 101.825 114.141C101.825 113.501 101.718 112.914 101.505 112.381C101.305 111.848 101.025 111.388 100.665 111.001C100.305 110.601 99.8713 110.294 99.3646 110.081C98.8713 109.854 98.3313 109.741 97.7446 109.741C97.1579 109.741 96.6179 109.854 96.1246 110.081C95.6313 110.294 95.1979 110.601 94.8246 111.001C94.4513 111.388 94.1646 111.848 93.9646 112.381C93.7779 112.914 93.6846 113.501 93.6846 114.141C93.6846 114.781 93.7779 115.368 93.9646 115.901C94.1646 116.434 94.4513 116.901 94.8246 117.301C95.1979 117.701 95.6313 118.008 96.1246 118.221C96.6179 118.434 97.1579 118.541 97.7446 118.541ZM112.12 121.381C111.253 121.381 110.46 121.274 109.74 121.061C109.033 120.848 108.4 120.534 107.84 120.121C107.293 119.708 106.8 119.208 106.36 118.621L108.24 116.481C108.893 117.388 109.54 118.008 110.18 118.341C110.833 118.661 111.54 118.821 112.3 118.821C112.713 118.821 113.08 118.768 113.4 118.661C113.733 118.541 113.993 118.374 114.18 118.161C114.366 117.948 114.46 117.694 114.46 117.401C114.46 117.188 114.413 116.994 114.32 116.821C114.226 116.634 114.093 116.474 113.92 116.341C113.746 116.194 113.54 116.068 113.3 115.961C113.06 115.841 112.793 115.741 112.5 115.661C112.206 115.568 111.886 115.494 111.54 115.441C110.793 115.268 110.14 115.061 109.58 114.821C109.02 114.568 108.553 114.261 108.18 113.901C107.806 113.528 107.526 113.108 107.34 112.641C107.166 112.174 107.08 111.648 107.08 111.061C107.08 110.461 107.213 109.908 107.48 109.401C107.746 108.881 108.113 108.434 108.58 108.061C109.06 107.688 109.606 107.401 110.22 107.201C110.846 107.001 111.506 106.901 112.2 106.901C113.053 106.901 113.8 107.001 114.44 107.201C115.08 107.388 115.633 107.661 116.1 108.021C116.58 108.381 116.98 108.821 117.3 109.341L115.4 111.181C115.12 110.808 114.813 110.494 114.48 110.241C114.16 109.988 113.806 109.801 113.42 109.681C113.046 109.548 112.66 109.481 112.26 109.481C111.82 109.481 111.44 109.541 111.12 109.661C110.8 109.768 110.546 109.928 110.36 110.141C110.186 110.354 110.1 110.614 110.1 110.921C110.1 111.161 110.16 111.374 110.28 111.561C110.4 111.748 110.573 111.914 110.8 112.061C111.026 112.194 111.3 112.314 111.62 112.421C111.94 112.528 112.293 112.621 112.68 112.701C113.413 112.848 114.073 113.041 114.66 113.281C115.246 113.521 115.746 113.814 116.16 114.161C116.586 114.494 116.913 114.894 117.14 115.361C117.366 115.814 117.48 116.328 117.48 116.901C117.48 117.848 117.253 118.654 116.8 119.321C116.346 119.988 115.72 120.501 114.92 120.861C114.12 121.208 113.186 121.381 112.12 121.381ZM119.837 121.181V118.601H122.177V109.761H119.837V107.181H127.517V109.761H125.177V118.601H127.517V121.181H119.837ZM133.722 121.181V109.881H129.642V107.181H140.922V109.881H136.722V121.181H133.722ZM143.04 121.181V118.601H145.38V109.761H143.04V107.181H150.72V109.761H148.38V118.601H150.72V121.181H143.04ZM159.913 121.381C158.886 121.381 157.939 121.201 157.073 120.841C156.206 120.481 155.446 119.981 154.793 119.341C154.153 118.688 153.659 117.921 153.313 117.041C152.966 116.148 152.793 115.181 152.793 114.141C152.793 113.088 152.966 112.128 153.313 111.261C153.659 110.381 154.153 109.614 154.793 108.961C155.446 108.308 156.206 107.801 157.073 107.441C157.939 107.081 158.886 106.901 159.913 106.901C160.953 106.901 161.899 107.081 162.753 107.441C163.619 107.801 164.373 108.308 165.013 108.961C165.666 109.614 166.166 110.381 166.513 111.261C166.859 112.141 167.033 113.101 167.033 114.141C167.033 115.181 166.859 116.141 166.513 117.021C166.166 117.901 165.666 118.668 165.013 119.321C164.373 119.974 163.619 120.481 162.753 120.841C161.899 121.201 160.953 121.381 159.913 121.381ZM159.913 118.541C160.499 118.541 161.039 118.434 161.533 118.221C162.039 118.008 162.473 117.701 162.833 117.301C163.193 116.901 163.473 116.434 163.673 115.901C163.886 115.368 163.993 114.781 163.993 114.141C163.993 113.501 163.886 112.914 163.673 112.381C163.473 111.848 163.193 111.388 162.833 111.001C162.473 110.601 162.039 110.294 161.533 110.081C161.039 109.854 160.499 109.741 159.913 109.741C159.326 109.741 158.786 109.854 158.293 110.081C157.799 110.294 157.366 110.601 156.993 111.001C156.619 111.388 156.333 111.848 156.133 112.381C155.946 112.914 155.853 113.501 155.853 114.141C155.853 114.781 155.946 115.368 156.133 115.901C156.333 116.434 156.619 116.901 156.993 117.301C157.366 117.701 157.799 118.008 158.293 118.221C158.786 118.434 159.326 118.541 159.913 118.541ZM169.748 121.181V107.181H172.428L180.168 117.641H179.608C179.554 117.228 179.508 116.828 179.468 116.441C179.428 116.041 179.388 115.641 179.348 115.241C179.321 114.828 179.294 114.408 179.268 113.981C179.254 113.541 179.241 113.081 179.228 112.601C179.214 112.108 179.208 111.574 179.208 111.001V107.181H182.148V121.181H179.428L171.528 110.621L172.288 110.641C172.354 111.334 172.408 111.928 172.448 112.421C172.501 112.901 172.541 113.321 172.568 113.681C172.594 114.041 172.614 114.354 172.628 114.621C172.654 114.888 172.668 115.141 172.668 115.381C172.681 115.621 172.688 115.874 172.688 116.141V121.181H169.748Z" fill="white"/>
</svg>
