<svg width="17" height="8" viewBox="0 0 17 8" fill="none" xmlns="http://www.w3.org/2000/svg">
<path d="M9.81765 7.6406L16.5008 1.64032C16.7263 1.43634 16.8346 1.17382 16.8019 0.910227C16.7693 0.646638 16.5983 0.403472 16.3265 0.233977C16.0548 0.0644832 15.7043 -0.0175252 15.3519 0.0059109C14.9995 0.029347 14.6738 0.156317 14.4462 0.359018L8.79035 5.43737L3.13446 0.359018C2.90722 0.155536 2.58131 0.0278641 2.22833 0.0040471C1.87536 -0.0197699 1.52418 0.0622161 1.25194 0.231995C0.979708 0.401774 0.808677 0.645461 0.776421 0.909525C0.744165 1.17359 0.853324 1.43644 1.07992 1.64032L7.76313 7.6406C7.88877 7.75311 8.04588 7.84361 8.22338 7.90571C8.40088 7.96781 8.59445 8 8.79039 8C8.98634 8 9.1799 7.96781 9.35741 7.90571C9.53491 7.84361 9.69202 7.75311 9.81765 7.6406Z" fill="white"/>
</svg>
