<svg width="16" height="15" viewBox="0 0 16 15" fill="none" xmlns="http://www.w3.org/2000/svg">
<path d="M2.90909 7.27274H1.45455C0.654545 7.27274 0 7.92728 0 8.72728V13.0909C0 13.8909 0.654545 14.5455 1.45455 14.5455H2.90909C3.70909 14.5455 4.36364 13.8909 4.36364 13.0909V8.72728C4.36364 7.92728 3.70909 7.27274 2.90909 7.27274Z" fill="white"/>
<path d="M8.72745 0H7.2729C6.4729 0 5.81836 0.654545 5.81836 1.45455V13.0909C5.81836 13.8909 6.4729 14.5455 7.2729 14.5455H8.72745C9.52745 14.5455 10.182 13.8909 10.182 13.0909V1.45455C10.182 0.654545 9.52745 0 8.72745 0Z" fill="white"/>
<path d="M14.5458 4.36365H13.0913C12.2913 4.36365 11.6367 5.01819 11.6367 5.81819V13.0909C11.6367 13.8909 12.2913 14.5455 13.0913 14.5455H14.5458C15.3458 14.5455 16.0004 13.8909 16.0004 13.0909V5.81819C16.0004 5.01819 15.3458 4.36365 14.5458 4.36365Z" fill="white"/>
</svg>
