<svg width="14" height="14" viewBox="0 0 14 14" fill="none" xmlns="http://www.w3.org/2000/svg">
<path d="M7.58333 12.25V13.7084L5.83333 12.5417L4.08333 13.7084V12.25H3.79167C3.25018 12.25 2.73088 12.0349 2.34799 11.652C1.9651 11.2691 1.75 10.7498 1.75 10.2084V2.91669C1.75 2.45256 1.93437 2.00744 2.26256 1.67925C2.59075 1.35106 3.03587 1.16669 3.5 1.16669H11.6667C11.8214 1.16669 11.9697 1.22815 12.0791 1.33754C12.1885 1.44694 12.25 1.59531 12.25 1.75002V11.6667C12.25 11.8214 12.1885 11.9698 12.0791 12.0792C11.9697 12.1886 11.8214 12.25 11.6667 12.25H7.58333ZM7.58333 11.0834H11.0833V9.33335H3.79167C3.5596 9.33335 3.33704 9.42554 3.17295 9.58964C3.00885 9.75373 2.91667 9.97629 2.91667 10.2084C2.91667 10.4404 3.00885 10.663 3.17295 10.8271C3.33704 10.9912 3.5596 11.0834 3.79167 11.0834H4.08333V9.91669H7.58333V11.0834ZM11.0833 8.16669V2.33335H3.5V8.1871C3.59662 8.1734 3.69408 8.16657 3.79167 8.16669H11.0833ZM4.08333 2.91669H5.25V4.08335H4.08333V2.91669ZM4.08333 4.66669H5.25V5.83335H4.08333V4.66669ZM4.08333 6.41669H5.25V7.58335H4.08333V6.41669Z" fill="black"/>
</svg>
