<svg width="auto" height="auto" viewBox="0 0 95 95" fill="none" xmlns="http://www.w3.org/2000/svg">
<path d="M58.6 0C67.6 0 72.1 0 77 1.5C82.3 3.4 86.5 7.6 88.4 12.9C90 17.8 90 22.4 90 31.4V58.6C90 67.6 90 72.1 88.5 77C86.6 82.3 82.4 86.5 77.1 88.4C72.1 90 67.6 90 58.6 90H31.4C22.4 90 17.9 90 13 88.5C7.6 86.5 3.5 82.4 1.5 77C0 72.2 0 67.7 0 58.6V31.4C0 22.4 0 17.9 1.5 13C3.5 7.7 7.6 3.5 13 1.6C17.8 -1.19209e-07 22.3 0 31.4 0H58.6Z" fill="white"/>
<path d="M45 84C66.5391 84 84 66.5391 84 45C84 23.4609 66.5391 6 45 6C23.4609 6 6 23.4609 6 45C6 66.5391 23.4609 84 45 84Z" fill="url(#paint0_linear_1033_4056)"/>
<path d="M44.2001 9H45.0001V15.7H44.3001L44.2001 9ZM50.5001 9.5L51.2001 9.6L50.0001 16.2L49.3001 16.1L50.5001 9.5ZM56.6001 11.1L57.3001 11.4L55.0001 17.7L54.3001 17.4L56.6001 11.1ZM62.3001 13.7L62.9001 14.1L59.5001 19.9L58.9001 19.5L62.3001 13.7ZM67.5001 17.2L68.1001 17.7L63.8001 22.9L63.2001 22.4L67.5001 17.2ZM71.9001 21.6L72.4001 22.2L67.2001 26.5L66.7001 25.9L71.9001 21.6ZM75.6001 26.7L76.0001 27.3L70.2001 30.7L69.8001 30.1L75.6001 26.7ZM78.3001 32.4L78.6001 33.1L72.3001 35.4L72.0001 34.7L78.3001 32.4ZM80.0001 38.4L80.1001 39.1L73.5001 40.3L73.4001 39.6L80.0001 38.4ZM80.6001 44.6V45.3H73.9001V44.6H80.6001ZM80.1001 50.9L80.0001 51.6L73.4001 50.4L73.5001 49.7L80.1001 50.9ZM78.6001 57L78.3001 57.7L72.0001 55.4L72.3001 54.7L78.6001 57ZM76.0001 62.7L75.6001 63.3L69.7001 60L70.1001 59.4L76.0001 62.7ZM72.4001 67.9L71.9001 68.5L66.7001 64.2L67.2001 63.6L72.4001 67.9ZM68.0001 72.3L67.4001 72.8L63.1001 67.6L63.7001 67.1L68.0001 72.3ZM62.9001 76L62.3001 76.4L58.9001 70.6L59.5001 70.2L62.9001 76ZM57.3001 78.7L56.6001 79L54.3001 72.7L55.0001 72.4L57.3001 78.7ZM51.2001 80.4L50.5001 80.5L49.3001 73.9L50.0001 73.8L51.2001 80.4ZM45.0001 81H44.3001V74.3H45.0001V81ZM38.7001 80.5L38.0001 80.4L39.2001 73.8L39.9001 73.9L38.7001 80.5ZM32.7001 79L32.0001 78.7L34.3001 72.4L35.0001 72.7L32.7001 79ZM26.9001 76.4L26.3001 76L29.7001 70.2L30.3001 70.6L26.9001 76.4ZM21.8001 72.8L21.2001 72.3L25.5001 67.1L26.1001 67.6L21.8001 72.8ZM17.3001 68.4L16.8001 67.8L22.0001 63.5L22.5001 64.1L17.3001 68.4ZM13.6001 63.3L13.2001 62.7L19.0001 59.3L19.4001 59.9L13.6001 63.3ZM10.9001 57.7L10.7001 57L17.0001 54.7L17.3001 55.4L10.9001 57.7ZM9.2001 51.6L9.1001 50.9L15.7001 49.7L15.8001 50.4L9.2001 51.6ZM8.6001 45.4V44.7H15.3001V45.4H8.6001ZM9.1001 39.1L9.2001 38.4L15.8001 39.6L15.7001 40.3L9.1001 39.1ZM10.7001 33.1L11.0001 32.4L17.3001 34.7L17.0001 35.4L10.7001 33.1ZM13.3001 27.3L13.7001 26.7L19.5001 30.1L19.1001 30.7L13.3001 27.3ZM16.8001 22.2L17.3001 21.6L22.5001 25.9L22.0001 26.5L16.8001 22.2ZM21.2001 17.7L21.8001 17.2L26.1001 22.4L25.5001 22.9L21.2001 17.7ZM26.3001 14L26.9001 13.6L30.3001 19.4L29.7001 19.8L26.3001 14ZM31.9001 11.3L32.6001 11L34.9001 17.3L34.2001 17.6L31.9001 11.3ZM38.0001 9.6L38.7001 9.5L39.9001 16.1L39.2001 16.2L38.0001 9.6Z" fill="white"/>
<path d="M47.4002 9.1001L48.1002 9.2001L47.8002 12.9001H47.0002L47.4002 9.1001ZM53.6002 10.2001L54.3002 10.4001L53.3002 14.0001L52.6002 13.8001L53.6002 10.2001ZM59.5002 12.2001L60.2002 12.5001L58.6002 16.0001L57.9002 15.7001L59.5002 12.2001ZM64.9002 15.3001L65.5002 15.7001L63.3002 18.8001L62.7002 18.4001L64.9002 15.3001ZM69.8002 19.3001L70.3002 19.8001L67.6002 22.5001L67.1002 22.0001L69.8002 19.3001ZM73.9002 24.1001L74.3002 24.7001L71.2002 26.9001L70.8002 26.3001L73.9002 24.1001ZM77.1002 29.5001L77.4002 30.2001L74.0002 31.7001L73.7002 31.0001L77.1002 29.5001ZM79.3002 35.3001L79.5002 36.0001L75.9002 37.0001L75.7002 36.3001L79.3002 35.3001ZM80.4002 41.5001L80.5002 42.2001L76.8002 42.5001L76.7002 41.8001L80.4002 41.5001ZM80.5002 47.8001L80.4002 48.5001L76.7002 48.2001L76.8002 47.5001L80.5002 47.8001ZM79.5002 54.0001L79.3002 54.7001L75.7002 53.7001L75.9002 53.0001L79.5002 54.0001ZM77.4002 59.9001L77.1002 60.6001L73.7002 59.0001L74.0002 58.3001L77.4002 59.9001ZM74.3002 65.3001L73.9002 66.0001L70.8002 63.8001L71.2002 63.2001L74.3002 65.3001ZM70.3002 70.2001L69.8002 70.7001L67.1002 68.0001L67.6002 67.5001L70.3002 70.2001ZM65.6002 74.3001L65.0002 74.7001L62.8002 71.6001L63.4002 71.2001L65.6002 74.3001ZM60.2002 77.5001L59.5002 77.8001L57.9002 74.4001L58.6002 74.1001L60.2002 77.5001ZM54.3002 79.7001L53.6002 79.9001L52.6002 76.3001L53.3002 76.1001L54.3002 79.7001ZM48.1002 80.8001L47.4002 80.9001L47.0002 77.2001L47.7002 77.1001L48.1002 80.8001ZM41.8002 80.9001L41.1002 80.8001L41.4002 77.1001L42.1002 77.2001L41.8002 80.9001ZM35.7002 79.9001L35.0002 79.7001L36.0002 76.1001L36.7002 76.3001L35.7002 79.9001ZM29.7002 77.8001L29.0002 77.5001L30.6002 74.1001L31.3002 74.4001L29.7002 77.8001ZM24.3002 74.7001L23.7002 74.3001L25.9002 71.2001L26.5002 71.6001L24.3002 74.7001ZM19.4002 70.7001L18.9002 70.2001L21.6002 67.5001L22.1002 68.0001L19.4002 70.7001ZM15.3002 66.0001L14.9002 65.4001L18.0002 63.2001L18.4002 63.8001L15.3002 66.0001ZM12.2002 60.6001L11.9002 59.9001L15.3002 58.3001L15.6002 59.0001L12.2002 60.6001ZM9.9002 54.7001L9.8002 54.0001L13.4002 53.0001L13.6002 53.7001L9.9002 54.7001ZM8.8002 48.5001L8.7002 47.8001L12.4002 47.5001L12.5002 48.2001L8.8002 48.5001ZM8.7002 42.3001L8.8002 41.6001L12.5002 41.9001L12.4002 42.6001L8.7002 42.3001ZM9.8002 36.1001L10.0002 35.4001L13.6002 36.4001L13.4002 37.0001L9.8002 36.1001ZM11.8002 30.1001L12.1002 29.4001L15.5002 31.0001L15.2002 31.7001L11.8002 30.1001ZM14.9002 24.7001L15.3002 24.1001L18.4002 26.3001L18.0002 26.8001L14.9002 24.7001ZM18.9002 19.8001L19.4002 19.3001L22.1002 22.0001L21.6002 22.5001L18.9002 19.8001ZM23.7002 15.8001L24.3002 15.4001L26.5002 18.5001L25.9002 18.9001L23.7002 15.8001ZM29.1002 12.6001L29.8002 12.3001L31.4002 15.7001L30.6002 16.0001L29.1002 12.6001ZM34.9002 10.4001L35.6002 10.2001L36.6002 13.8001L35.9002 14.0001L34.9002 10.4001ZM41.1002 9.2001L41.8002 9.1001L42.1002 12.8001L41.4002 12.9001L41.1002 9.2001Z" fill="white"/>
<path d="M48.6883 48.688L41.2637 41.2634L17.2928 72.3054L48.6883 48.688L41.2637 41.2634Z" fill="white"/>
<path d="M41.2637 41.2634L72.3056 17.1511L48.6883 48.6881L41.2637 41.2634Z" fill="#FF1414"/>
<defs>
<linearGradient id="paint0_linear_1033_4056" x1="45.0008" y1="6.0008" x2="45.0008" y2="84.0008" gradientUnits="userSpaceOnUse">
<stop stop-color="#23D9FD"/>
<stop offset="1" stop-color="#1F63F0"/>
</linearGradient>
</defs>
</svg>
