<svg width="100%" height="100%" viewBox="0 0 16 16" fill="none" xmlns="http://www.w3.org/2000/svg">
<path d="M11.4682 10.0629H10.8036L10.5681 9.81589C11.3925 8.77301 11.8888 7.4191 11.8888 5.94625C11.8888 2.66209 9.44087 0 6.42095 0C3.40103 0 0.953125 2.66209 0.953125 5.94625C0.953125 9.23042 3.40103 11.8925 6.42095 11.8925C7.77528 11.8925 9.02026 11.3528 9.97923 10.4563L10.2064 10.7124V11.4351L14.4124 16L15.6658 14.6369L11.4682 10.0629ZM6.42095 10.0629C4.32635 10.0629 2.63553 8.22413 2.63553 5.94625C2.63553 3.66838 4.32635 1.82962 6.42095 1.82962C8.51554 1.82962 10.2064 3.66838 10.2064 5.94625C10.2064 8.22413 8.51554 10.0629 6.42095 10.0629Z" fill="#B2B2B2"/>
</svg>
