<svg width="50" height="50" viewBox="0 0 50 50" fill="none" xmlns="http://www.w3.org/2000/svg">
<path d="M35.7347 31.4465H33.4763L32.6758 30.6747C35.4774 27.4157 37.1641 23.1847 37.1641 18.582C37.1641 8.31904 28.8451 0 18.582 0C8.31904 0 0 8.31904 0 18.582C0 28.8451 8.31904 37.1641 18.582 37.1641C23.1847 37.1641 27.4157 35.4774 30.6747 32.6758L31.4465 33.4763V35.7347L45.7404 50L50 45.7404L35.7347 31.4465ZM18.582 31.4465C11.4637 31.4465 5.71755 25.7004 5.71755 18.582C5.71755 11.4637 11.4637 5.71755 18.582 5.71755C25.7004 5.71755 31.4465 11.4637 31.4465 18.582C31.4465 25.7004 25.7004 31.4465 18.582 31.4465Z" fill="#B2B2B2"/>
</svg>
