<svg width="1.3rem" height="1.3rem" viewBox="0 0 15 16" fill="none" xmlns="http://www.w3.org/2000/svg">
<path d="M10.5151 10.0629H9.85048L9.61497 9.81589C10.4394 8.77301 10.9357 7.4191 10.9357 5.94625C10.9357 2.66209 8.48775 0 5.46782 0C2.4479 0 0 2.66209 0 5.94625C0 9.23042 2.4479 11.8925 5.46782 11.8925C6.82215 11.8925 8.06713 11.3528 9.0261 10.4563L9.25327 10.7124V11.4351L13.4593 16L14.7127 14.6369L10.5151 10.0629ZM5.46782 10.0629C3.37322 10.0629 1.6824 8.22413 1.6824 5.94625C1.6824 3.66838 3.37322 1.82962 5.46782 1.82962C7.56241 1.82962 9.25327 3.66838 9.25327 5.94625C9.25327 8.22413 7.56241 10.0629 5.46782 10.0629Z" fill="#B2B2B2"/>
</svg>
