<svg width="1.5rem" height="1.5rem" viewBox="0 0 28 28" fill="none" xmlns="http://www.w3.org/2000/svg">
<path d="M25.5256 16.036L24.9996 15.732C24.3736 15.371 23.9996 14.723 23.9996 14C23.9996 13.277 24.3736 12.629 24.9996 12.268L25.5256 11.964C26.9616 11.134 27.4526 9.302 26.6236 7.866L25.6236 6.134C24.7966 4.701 22.9576 4.209 21.5256 5.036L20.9996 5.339C20.3736 5.701 19.6246 5.701 18.9996 5.339C18.3736 4.977 17.9996 4.33 17.9996 3.607V3C17.9996 1.346 16.6536 0 14.9996 0H12.9996C11.3456 0 9.99962 1.346 9.99962 3V3.608C9.99962 4.331 9.62562 4.978 8.99962 5.34C8.37362 5.701 7.62562 5.702 6.99962 5.34L6.47362 5.036C5.04162 4.209 3.20262 4.701 2.37462 6.134L1.37462 7.866C0.545623 9.302 1.03662 11.135 2.47262 11.964L2.99962 12.268C3.62562 12.629 3.99962 13.277 3.99962 14C3.99962 14.723 3.62562 15.371 2.99962 15.732L2.47362 16.036C1.03762 16.865 0.546623 18.698 1.37562 20.134L2.37562 21.866C3.20362 23.299 5.04262 23.791 6.47362 22.964L6.99962 22.661C7.62562 22.298 8.37362 22.3 8.99962 22.661C9.62562 23.023 9.99962 23.67 9.99962 24.393V25C9.99962 26.654 11.3456 28 12.9996 28H14.9996C16.6536 28 17.9996 26.654 17.9996 25V24.392C17.9996 23.669 18.3736 23.022 18.9996 22.66C19.6246 22.299 20.3736 22.298 20.9996 22.66L21.5256 22.964C22.9576 23.79 24.7966 23.298 25.6236 21.866L26.6236 20.134C27.4526 18.698 26.9616 16.865 25.5256 16.036ZM13.9996 19C11.2426 19 8.99962 16.757 8.99962 14C8.99962 11.243 11.2426 9 13.9996 9C16.7566 9 18.9996 11.243 18.9996 14C18.9996 16.757 16.7566 19 13.9996 19Z" fill="#B2B2B2"/>
</svg>
