<svg width="15" height="14" viewBox="0 0 15 14" fill="none" xmlns="http://www.w3.org/2000/svg">
<path d="M5.43773 4.32912C5.43773 4.32912 2.78887 4.62251 1.02184 4.81866C0.86257 4.83794 0.721745 4.9444 0.668935 5.10618C0.616125 5.26796 0.668935 5.43645 0.78629 5.54291C2.09899 6.74077 4.07139 8.53462 4.07139 8.53462C4.06971 8.53462 3.52988 11.1441 3.17111 12.8851C3.14093 13.0427 3.19793 13.2095 3.33541 13.3093C3.47204 13.409 3.64807 13.4107 3.78638 13.3328C5.33212 12.4543 7.64736 11.1332 7.64736 11.1332C7.64736 11.1332 9.96344 12.4543 11.5067 13.3336C11.6475 13.4107 11.8235 13.409 11.9602 13.3093C12.0976 13.2095 12.1546 13.0427 12.1236 12.886C11.7648 11.1441 11.2258 8.53462 11.2258 8.53462C11.2258 8.53462 13.1982 6.74077 14.5109 5.54542C14.6283 5.43561 14.6803 5.26713 14.6283 5.10618C14.5763 4.94524 14.4355 4.83878 14.2762 4.82034C12.5092 4.62251 9.8595 4.32912 9.8595 4.32912C9.8595 4.32912 8.76139 1.89988 8.0296 0.280381C7.96087 0.135364 7.81669 0.0339355 7.64736 0.0339355C7.47803 0.0339355 7.33302 0.136202 7.26763 0.280381C6.535 1.89988 5.43773 4.32912 5.43773 4.32912Z" fill="black"/>
</svg>
