<svg width="14" height="14" viewBox="0 0 14 14" fill="none" xmlns="http://www.w3.org/2000/svg">
<path d="M7.41168 4.1176C7.41168 3.89919 7.32492 3.68972 7.17048 3.53528C7.01604 3.38084 6.80657 3.29408 6.58816 3.29408C6.36975 3.29408 6.16028 3.38084 6.00584 3.53528C5.8514 3.68972 5.76464 3.89919 5.76464 4.1176V7.41168C5.76464 7.63009 5.8514 7.83955 6.00584 7.99399C6.16028 8.14843 6.36975 8.2352 6.58816 8.2352H9.88224C10.1007 8.2352 10.3101 8.14843 10.4646 7.99399C10.619 7.83955 10.7058 7.63009 10.7058 7.41168C10.7058 7.19327 10.619 6.9838 10.4646 6.82936C10.3101 6.67492 10.1007 6.58816 9.88224 6.58816H7.41168V4.1176ZM12.0234 2.14115C11.87 1.99081 11.6634 1.90708 11.4486 1.90816C11.2338 1.90925 11.0281 1.99506 10.8763 2.14695C10.7244 2.29883 10.6386 2.50452 10.6375 2.71932C10.6364 2.93412 10.7201 3.14067 10.8705 3.29408C11.3556 3.78128 11.7399 4.35937 12.0013 4.99527C12.2627 5.63117 12.3962 6.31238 12.394 6.99992C12.3954 7.70326 12.2579 8.39997 11.9894 9.05004C11.7209 9.70012 11.3266 10.2908 10.8293 10.7881C10.332 11.2855 9.7413 11.6797 9.09122 11.9482C8.44114 12.2167 7.74444 12.3542 7.0411 12.3528C4.07643 12.3528 1.64704 9.96459 1.64704 6.99992C1.64563 6.29657 1.78312 5.59987 2.05163 4.94979C2.32014 4.29971 2.71438 3.70906 3.21172 3.21171C3.70906 2.71437 4.29972 2.32014 4.9498 2.05163C5.59987 1.78312 6.29657 1.64563 6.99992 1.64704C7.21833 1.64704 7.4278 1.56028 7.58224 1.40584C7.73668 1.2514 7.82344 1.04193 7.82344 0.82352C7.82344 0.605109 7.73668 0.395643 7.58224 0.241203C7.4278 0.0867634 7.21833 0 6.99992 0C5.61547 0 4.26211 0.410538 3.11098 1.1797C1.95984 1.94886 1.06265 3.0421 0.53284 4.32117C0.00303294 5.60023 -0.135589 7.00768 0.134505 8.36553C0.404598 9.72339 1.07128 10.9707 2.05023 11.9496C3.02919 12.9286 4.27645 13.5952 5.6343 13.8653C6.99216 14.1354 8.39961 13.9968 9.67867 13.467C10.9577 12.9372 12.051 12.04 12.8201 10.8889C13.5893 9.73773 13.9998 8.38437 13.9998 6.99992C14.006 6.09987 13.8346 5.20744 13.4955 4.37371C13.1563 3.53997 12.6561 2.78131 12.0234 2.14115Z" fill="white"/>
</svg>
