<svg width="16" height="20" viewBox="0 0 16 20" fill="none" xmlns="http://www.w3.org/2000/svg">
<path d="M0.558061 6.21023L6.52397 0.511363C6.85352 0.170454 7.30238 -5.96046e-07 7.7967 -5.96046e-07C8.29102 -5.96046e-07 8.7342 0.170454 9.06943 0.511363L15.0581 6.21023C15.7683 6.88636 15.7683 7.98864 15.0581 8.66477C14.3478 9.34091 13.2001 9.34091 12.4899 8.66477L9.62624 5.92614V18.2557C9.62624 19.2216 8.81374 20 7.80806 20C6.80238 20 5.98988 19.2216 5.98988 18.2614L5.98988 5.93182L3.12624 8.67045C2.41602 9.34659 1.26829 9.34659 0.558061 8.67045C-0.152166 7.98864 -0.152166 6.89204 0.558061 6.21023Z" fill="#B2B2B2"/>
</svg>
