<svg width="50" height="50" viewBox="0 0 50 50" fill="none" xmlns="http://www.w3.org/2000/svg">
<path d="M29.9107 40.625H32.5893C32.9445 40.625 33.2851 40.5015 33.5363 40.2818C33.7875 40.062 33.9286 39.7639 33.9286 39.4531V18.3594C33.9286 18.0486 33.7875 17.7505 33.5363 17.5307C33.2851 17.311 32.9445 17.1875 32.5893 17.1875H29.9107C29.5555 17.1875 29.2149 17.311 28.9637 17.5307C28.7125 17.7505 28.5714 18.0486 28.5714 18.3594V39.4531C28.5714 39.7639 28.7125 40.062 28.9637 40.2818C29.2149 40.5015 29.5555 40.625 29.9107 40.625ZM48.2143 7.8125H39.0167L35.2221 2.27539C34.7459 1.58107 34.0722 1.00653 33.2668 0.60777C32.4613 0.209006 31.5516 -0.000385097 30.6261 5.31685e-07H19.3739C18.4488 -4.77314e-05 17.5395 0.209504 16.7345 0.608252C15.9295 1.007 15.2562 1.58135 14.7801 2.27539L10.9833 7.8125H1.78571C1.31211 7.8125 0.85791 7.97712 0.523024 8.27015C0.188137 8.56317 0 8.9606 0 9.375L0 10.9375C0 11.3519 0.188137 11.7493 0.523024 12.0424C0.85791 12.3354 1.31211 12.5 1.78571 12.5H3.57143V45.3125C3.57143 46.5557 4.13584 47.748 5.1405 48.6271C6.14516 49.5061 7.50777 50 8.92857 50H41.0714C42.4922 50 43.8548 49.5061 44.8595 48.6271C45.8642 47.748 46.4286 46.5557 46.4286 45.3125V12.5H48.2143C48.6879 12.5 49.1421 12.3354 49.477 12.0424C49.8119 11.7493 50 11.3519 50 10.9375V9.375C50 8.9606 49.8119 8.56317 49.477 8.27015C49.1421 7.97712 48.6879 7.8125 48.2143 7.8125ZM19.1786 4.97168C19.2383 4.88476 19.3227 4.81288 19.4236 4.76306C19.5246 4.71325 19.6386 4.68722 19.7545 4.6875H30.2455C30.3612 4.68738 30.475 4.7135 30.5757 4.76331C30.6765 4.81311 30.7607 4.8849 30.8203 4.97168L32.769 7.8125H17.231L19.1786 4.97168ZM41.0714 45.3125H8.92857V12.5H41.0714V45.3125ZM17.4107 40.625H20.0893C20.4445 40.625 20.7851 40.5015 21.0363 40.2818C21.2875 40.062 21.4286 39.7639 21.4286 39.4531V18.3594C21.4286 18.0486 21.2875 17.7505 21.0363 17.5307C20.7851 17.311 20.4445 17.1875 20.0893 17.1875H17.4107C17.0555 17.1875 16.7149 17.311 16.4637 17.5307C16.2125 17.7505 16.0714 18.0486 16.0714 18.3594V39.4531C16.0714 39.7639 16.2125 40.062 16.4637 40.2818C16.7149 40.5015 17.0555 40.625 17.4107 40.625Z" fill="#9296AC"/>
</svg>
