<svg width="22" height="22" viewBox="0 0 22 22" fill="none" xmlns="http://www.w3.org/2000/svg">
<path d="M11 19.25C15.5563 19.25 19.25 15.5563 19.25 11C19.25 6.44365 15.5563 2.75 11 2.75C6.44365 2.75 2.75 6.44365 2.75 11C2.75 15.5563 6.44365 19.25 11 19.25Z" stroke="black" stroke-width="1.5" stroke-linecap="round" stroke-linejoin="round"/>
<path d="M7.90625 10.6562C8.66564 10.6562 9.28125 10.0406 9.28125 9.28125C9.28125 8.52186 8.66564 7.90625 7.90625 7.90625C7.14686 7.90625 6.53125 8.52186 6.53125 9.28125C6.53125 10.0406 7.14686 10.6562 7.90625 10.6562Z" fill="black"/>
<path d="M14.0938 10.6562C14.8531 10.6562 15.4688 10.0406 15.4688 9.28125C15.4688 8.52186 14.8531 7.90625 14.0938 7.90625C13.3344 7.90625 12.7188 8.52186 12.7188 9.28125C12.7188 10.0406 13.3344 10.6562 14.0938 10.6562Z" fill="black"/>
<path d="M14.2059 14.5922C13.8191 14.1147 13.3306 13.7297 12.7761 13.4652C12.2215 13.2007 11.6148 13.0634 11.0004 13.0634C10.386 13.0634 9.7793 13.2007 9.22472 13.4652C8.67013 13.7297 8.18164 14.1147 7.79492 14.5922" stroke="black" stroke-width="1.5" stroke-linecap="round" stroke-linejoin="round"/>
</svg>
