<svg width="34" height="50" viewBox="0 0 34 50" fill="none" xmlns="http://www.w3.org/2000/svg">
<path d="M1.49724 28.2064L26.5014 49.0433C27.3514 49.7464 28.4454 50.084 29.5438 49.9822C30.6423 49.8804 31.6556 49.3475 32.3619 48.5001C33.0682 47.6527 33.4099 46.56 33.3123 45.4612C33.2146 44.3624 32.6855 43.3471 31.8408 42.6376L10.6785 25.0035L31.8408 7.3693C32.6888 6.66079 33.2208 5.64466 33.32 4.54414C33.4193 3.44362 33.0776 2.34871 32.3702 1.49992C31.6627 0.65113 30.6472 0.117883 29.5468 0.0173162C28.4464 -0.0832507 27.351 0.257088 26.5014 0.96357L1.49724 21.8008C1.02839 22.1925 0.651256 22.6823 0.392469 23.2357C0.133682 23.7892 -0.000446513 24.3927 -0.000446513 25.0036C-0.000446513 25.6145 0.133682 26.218 0.392469 26.7714C0.651256 27.3249 1.02839 27.8147 1.49724 28.2064Z" fill="#9296AC"/>
</svg>
