<svg width="50" height="50" viewBox="0 0 50 50" fill="none" xmlns="http://www.w3.org/2000/svg">
<path d="M25 0C20.0555 0 15.222 1.46622 11.1108 4.21326C6.99952 6.96029 3.79521 10.8648 1.90302 15.4329C0.0108321 20.0011 -0.484251 25.0277 0.480379 29.8773C1.44501 34.7268 3.82603 39.1813 7.32234 42.6777C10.8187 46.174 15.2732 48.555 20.1227 49.5196C24.9723 50.4843 29.9989 49.9892 34.5671 48.097C39.1352 46.2048 43.0397 43.0005 45.7867 38.8893C48.5338 34.778 50 29.9445 50 25C49.9929 18.3718 47.3568 12.017 42.6699 7.33013C37.983 2.64325 31.6282 0.00705884 25 0ZM25 43.75C21.2916 43.75 17.6665 42.6503 14.5831 40.59C11.4996 38.5298 9.09641 35.6014 7.67727 32.1753C6.25813 28.7492 5.88681 24.9792 6.61029 21.3421C7.33376 17.7049 9.11952 14.364 11.7418 11.7417C14.364 9.11951 17.7049 7.33375 21.3421 6.61027C24.9792 5.8868 28.7492 6.25811 32.1753 7.67726C35.6014 9.0964 38.5298 11.4996 40.5901 14.5831C42.6503 17.6665 43.75 21.2916 43.75 25C43.7446 29.9711 41.7674 34.7371 38.2523 38.2523C34.7371 41.7674 29.9712 43.7446 25 43.75Z" fill="#4A58A9"/>
<path d="M33.4614 16.5405C33.1713 16.2503 32.8269 16.02 32.4477 15.8629C32.0686 15.7059 31.6623 15.625 31.2519 15.625C30.8416 15.625 30.4352 15.7059 30.0561 15.8629C29.677 16.02 29.3325 16.2503 29.0424 16.5405L25.0019 20.581L20.9614 16.5405C20.3749 15.9572 19.5809 15.6303 18.7537 15.6315C17.9265 15.6326 17.1335 15.9617 16.5486 16.5467C15.9637 17.1316 15.6345 17.9246 15.6334 18.7518C15.6322 19.579 15.9592 20.3729 16.5424 20.9595L20.583 25L16.5424 29.0405C16.251 29.3304 16.0195 29.6749 15.8614 30.0544C15.7033 30.4338 15.6217 30.8407 15.6211 31.2518C15.6205 31.6629 15.7011 32.07 15.8581 32.4499C16.0152 32.8298 16.2456 33.175 16.5363 33.4656C16.827 33.7563 17.1721 33.9868 17.552 34.1438C17.9319 34.3009 18.3391 34.3814 18.7501 34.3808C19.1612 34.3803 19.5681 34.2986 19.9476 34.1405C20.327 33.9824 20.6715 33.751 20.9614 33.4595L25.0019 29.419L29.0424 33.4595C29.629 34.0428 30.4229 34.3697 31.2501 34.3685C32.0773 34.3674 32.8703 34.0383 33.4553 33.4533C34.0402 32.8684 34.3693 32.0754 34.3705 31.2482C34.3716 30.421 34.0447 29.6271 33.4614 29.0405L29.4209 25L33.4614 20.9595C33.7516 20.6694 33.9819 20.3249 34.139 19.9458C34.2961 19.5667 34.3769 19.1604 34.3769 18.75C34.3769 18.3396 34.2961 17.9333 34.139 17.5542C33.9819 17.1751 33.7516 16.8306 33.4614 16.5405Z" fill="#4A58A9"/>
</svg>
